# Blender v2.81 (sub 16) OBJ File: 'Cube.blend'
# www.blender.org
mtllib cube_origin_at_center_of_mesh.mtl
o Cube_Cube.000
v -1.500000 0.000000 1.500000
v -1.500000 2.280000 1.500000
v -1.500000 0.000000 -1.500000
v -1.500000 2.280000 -1.500000
v 1.500000 0.000000 1.500000
v 1.500000 2.280000 1.500000
v 1.500000 0.000000 -1.500000
v 1.500000 2.280000 -1.500000
vt 0.995900 -0.002874
vt 0.995900 1.002873
vt 0.747950 1.002873
vt 0.747950 -0.002874
vt 0.500000 1.002873
vt 0.500000 -0.002873
vt 0.252050 1.002873
vt 0.252050 -0.002873
vt 0.004100 1.002874
vt 0.004100 -0.002873
vn -1.0000 0.0000 0.0000
vn 0.0000 -0.0000 -1.0000
vn 1.0000 -0.0000 0.0000
vn 0.0000 0.0000 1.0000
usemtl Material.001
s 1
f 1/1/1 2/2/1 4/3/1 3/4/1
s 2
f 3/4/2 4/3/2 8/5/2 7/6/2
s 3
f 7/6/3 8/5/3 6/7/3 5/8/3
s 4
f 5/8/4 6/7/4 2/9/4 1/10/4
