# Blender v2.81 (sub 16) OBJ File: ''
# www.blender.org
mtllib ranged_cylinder_origin_at_center_of_mesh.mtl
o Ranged_Cylinder_Cylinder
v -0.000001 0.000000 -1.500001
v -0.000001 0.540000 -1.500001
v 0.073601 0.540000 -1.498194
v 0.073601 0.000000 -1.498194
v 0.147025 0.540000 -1.492778
v 0.147025 0.000000 -1.492778
v 0.220095 0.540000 -1.483766
v 0.220095 0.000000 -1.483766
v 0.292635 0.540000 -1.471179
v 0.292635 0.000000 -1.471179
v 0.364469 0.540000 -1.455048
v 0.364469 0.000000 -1.455048
v 0.435426 0.540000 -1.435411
v 0.435426 0.000000 -1.435411
v 0.505334 0.540000 -1.412317
v 0.505334 0.000000 -1.412317
v 0.574024 0.540000 -1.385820
v 0.574024 0.000000 -1.385820
v 0.641332 0.540000 -1.355985
v 0.641332 0.000000 -1.355985
v 0.707094 0.540000 -1.322883
v 0.707094 0.000000 -1.322883
v 0.771153 0.540000 -1.286594
v 0.771153 0.000000 -1.286594
v 0.833354 0.540000 -1.247205
v 0.833354 0.000000 -1.247205
v 0.893548 0.540000 -1.204812
v 0.893548 0.000000 -1.204812
v 0.951589 0.540000 -1.159517
v 0.951589 0.000000 -1.159517
v 1.007338 0.540000 -1.111428
v 1.007338 0.000000 -1.111428
v 1.060659 0.540000 -1.060661
v 1.060659 0.000000 -1.060661
v 1.111426 0.540000 -1.007339
v 1.111426 0.000000 -1.007339
v 1.159515 0.540000 -0.951591
v 1.159515 0.000000 -0.951591
v 1.204810 0.540000 -0.893550
v 1.204810 0.000000 -0.893550
v 1.247204 0.540000 -0.833356
v 1.247204 0.000000 -0.833356
v 1.286592 0.540000 -0.771155
v 1.286592 0.000000 -0.771155
v 1.322881 0.540000 -0.707096
v 1.322881 0.000000 -0.707096
v 1.355983 0.540000 -0.641333
v 1.355983 0.000000 -0.641333
v 1.385818 0.540000 -0.574026
v 1.385818 0.000000 -0.574026
v 1.412315 0.540000 -0.505335
v 1.412315 0.000000 -0.505335
v 1.435410 0.540000 -0.435428
v 1.435410 0.000000 -0.435428
v 1.455046 0.540000 -0.364471
v 1.455046 0.000000 -0.364471
v 1.471177 0.540000 -0.292636
v 1.471177 0.000000 -0.292636
v 1.483764 0.540000 -0.220096
v 1.483764 0.000000 -0.220096
v 1.492776 0.540000 -0.147026
v 1.492776 0.000000 -0.147026
v 1.498192 0.540000 -0.073602
v 1.498192 0.000000 -0.073602
v 1.499999 0.540000 0.000000
v 1.499999 0.000000 0.000000
v 1.498192 0.540000 0.073601
v 1.498192 0.000000 0.073601
v 1.492776 0.540000 0.147025
v 1.492776 -0.000000 0.147025
v 1.483764 0.540000 0.220095
v 1.483764 -0.000000 0.220095
v 1.471177 0.540000 0.292635
v 1.471177 -0.000000 0.292635
v 1.455046 0.540000 0.364470
v 1.455046 -0.000000 0.364470
v 1.435409 0.540000 0.435427
v 1.435409 -0.000000 0.435427
v 1.412315 0.540000 0.505335
v 1.412315 -0.000000 0.505335
v 1.385818 0.540000 0.574025
v 1.385818 -0.000000 0.574025
v 1.355983 0.540000 0.641332
v 1.355983 -0.000000 0.641332
v 1.322881 0.540000 0.707095
v 1.322881 -0.000000 0.707095
v 1.286592 0.540000 0.771154
v 1.286592 -0.000000 0.771154
v 1.247203 0.540000 0.833355
v 1.247203 -0.000000 0.833355
v 1.204810 0.540000 0.893548
v 1.204810 -0.000000 0.893548
v 1.159515 0.540000 0.951589
v 1.159515 -0.000000 0.951589
v 1.111426 0.540000 1.007337
v 1.111426 -0.000000 1.007337
v 1.060659 0.540000 1.060659
v 1.060659 -0.000000 1.060659
v 1.007338 0.540000 1.111425
v 1.007338 -0.000000 1.111425
v 0.951589 0.540000 1.159514
v 0.951589 -0.000000 1.159514
v 0.893549 0.540000 1.204810
v 0.893549 -0.000000 1.204810
v 0.833355 0.540000 1.247203
v 0.833355 -0.000000 1.247203
v 0.771154 0.540000 1.286591
v 0.771154 -0.000000 1.286591
v 0.707095 0.540000 1.322880
v 0.707095 -0.000000 1.322880
v 0.641333 0.540000 1.355982
v 0.641333 -0.000000 1.355982
v 0.574026 0.540000 1.385818
v 0.574026 -0.000000 1.385818
v 0.505335 0.540000 1.412315
v 0.505335 -0.000000 1.412315
v 0.435428 0.540000 1.435409
v 0.435428 -0.000000 1.435409
v 0.364471 0.540000 1.455045
v 0.364471 -0.000000 1.455045
v 0.292637 0.540000 1.471177
v 0.292637 -0.000000 1.471177
v 0.220097 0.540000 1.483763
v 0.220097 -0.000000 1.483763
v 0.147027 0.540000 1.492776
v 0.147027 -0.000000 1.492776
v 0.073603 0.540000 1.498192
v 0.073603 -0.000000 1.498192
v 0.000002 0.540000 1.499999
v 0.000002 -0.000000 1.499999
v -0.073600 0.540000 1.498192
v -0.073600 -0.000000 1.498192
v -0.147024 0.540000 1.492776
v -0.147024 -0.000000 1.492776
v -0.220094 0.540000 1.483764
v -0.220094 -0.000000 1.483764
v -0.292633 0.540000 1.471178
v -0.292633 -0.000000 1.471178
v -0.364468 0.540000 1.455047
v -0.364468 -0.000000 1.455047
v -0.435425 0.540000 1.435410
v -0.435425 -0.000000 1.435410
v -0.505332 0.540000 1.412316
v -0.505332 -0.000000 1.412316
v -0.574023 0.540000 1.385820
v -0.574023 -0.000000 1.385820
v -0.641330 0.540000 1.355985
v -0.641330 -0.000000 1.355985
v -0.707092 0.540000 1.322883
v -0.707092 -0.000000 1.322883
v -0.771151 0.540000 1.286594
v -0.771151 -0.000000 1.286594
v -0.833353 0.540000 1.247206
v -0.833353 -0.000000 1.247206
v -0.893546 0.540000 1.204813
v -0.893546 -0.000000 1.204813
v -0.951587 0.540000 1.159518
v -0.951587 -0.000000 1.159518
v -1.007336 0.540000 1.111429
v -1.007336 -0.000000 1.111429
v -1.060658 0.540000 1.060663
v -1.060658 -0.000000 1.060663
v -1.111424 0.540000 1.007341
v -1.111424 -0.000000 1.007341
v -1.159514 0.540000 0.951593
v -1.159514 -0.000000 0.951593
v -1.204809 0.540000 0.893552
v -1.204809 -0.000000 0.893552
v -1.247203 0.540000 0.833358
v -1.247203 -0.000000 0.833358
v -1.286592 0.540000 0.771157
v -1.286592 -0.000000 0.771157
v -1.322881 0.540000 0.707098
v -1.322881 -0.000000 0.707098
v -1.355983 0.540000 0.641335
v -1.355983 -0.000000 0.641335
v -1.385819 0.540000 0.574028
v -1.385819 -0.000000 0.574028
v -1.412316 0.540000 0.505337
v -1.412316 -0.000000 0.505337
v -1.435411 0.540000 0.435429
v -1.435411 -0.000000 0.435429
v -1.455047 0.540000 0.364472
v -1.455047 -0.000000 0.364472
v -1.471178 0.540000 0.292637
v -1.471178 -0.000000 0.292637
v -1.483765 0.540000 0.220097
v -1.483765 -0.000000 0.220097
v -1.492778 0.540000 0.147027
v -1.492778 -0.000000 0.147027
v -1.498194 0.540000 0.073603
v -1.498194 0.000000 0.073603
v -1.500001 0.540000 0.000001
v -1.500001 0.000000 0.000001
v -1.498194 0.540000 -0.073601
v -1.498194 0.000000 -0.073601
v -1.492778 0.540000 -0.147025
v -1.492778 0.000000 -0.147025
v -1.483766 0.540000 -0.220095
v -1.483766 0.000000 -0.220095
v -1.471179 0.540000 -0.292635
v -1.471179 0.000000 -0.292635
v -1.455048 0.540000 -0.364470
v -1.455048 0.000000 -0.364470
v -1.435412 0.540000 -0.435427
v -1.435412 0.000000 -0.435427
v -1.412317 0.540000 -0.505335
v -1.412317 0.000000 -0.505335
v -1.385820 0.540000 -0.574026
v -1.385820 0.000000 -0.574026
v -1.355985 0.540000 -0.641333
v -1.355985 0.000000 -0.641333
v -1.322883 0.540000 -0.707096
v -1.322883 0.000000 -0.707096
v -1.286594 0.540000 -0.771155
v -1.286594 0.000000 -0.771155
v -1.247205 0.540000 -0.833357
v -1.247205 0.000000 -0.833357
v -1.204812 0.540000 -0.893550
v -1.204812 0.000000 -0.893550
v -1.159516 0.540000 -0.951592
v -1.159516 0.000000 -0.951592
v -1.111427 0.540000 -1.007340
v -1.111427 0.000000 -1.007340
v -1.060660 0.540000 -1.060662
v -1.060660 0.000000 -1.060662
v -1.007338 0.540000 -1.111429
v -1.007338 0.000000 -1.111429
v -0.951590 0.540000 -1.159518
v -0.951590 0.000000 -1.159518
v -0.893548 0.540000 -1.204813
v -0.893548 0.000000 -1.204813
v -0.833355 0.540000 -1.247206
v -0.833355 0.000000 -1.247206
v -0.771153 0.540000 -1.286595
v -0.771153 0.000000 -1.286595
v -0.707094 0.540000 -1.322884
v -0.707094 0.000000 -1.322884
v -0.641331 0.540000 -1.355986
v -0.641331 0.000000 -1.355986
v -0.574024 0.540000 -1.385821
v -0.574024 0.000000 -1.385821
v -0.505333 0.540000 -1.412318
v -0.505333 0.000000 -1.412318
v -0.435425 0.540000 -1.435412
v -0.435425 0.000000 -1.435412
v -0.364468 0.540000 -1.455049
v -0.364468 0.000000 -1.455049
v -0.292633 0.540000 -1.471180
v -0.292633 0.000000 -1.471180
v -0.220093 0.540000 -1.483766
v -0.220093 0.000000 -1.483766
v -0.147023 0.540000 -1.492779
v -0.147023 0.000000 -1.492779
v -0.073598 0.540000 -1.498194
v -0.073598 0.000000 -1.498194
vt 1.000000 0.500000
vt 1.000000 1.000000
vt 0.992188 1.000000
vt 0.992188 0.500000
vt 0.984375 1.000000
vt 0.984375 0.500000
vt 0.976562 1.000000
vt 0.976562 0.500000
vt 0.968750 1.000000
vt 0.968750 0.500000
vt 0.960938 1.000000
vt 0.960938 0.500000
vt 0.953125 1.000000
vt 0.953125 0.500000
vt 0.945312 1.000000
vt 0.945312 0.500000
vt 0.937500 1.000000
vt 0.937500 0.500000
vt 0.929688 1.000000
vt 0.929688 0.500000
vt 0.921875 1.000000
vt 0.921875 0.500000
vt 0.914062 1.000000
vt 0.914062 0.500000
vt 0.906250 1.000000
vt 0.906250 0.500000
vt 0.898438 1.000000
vt 0.898438 0.500000
vt 0.890625 1.000000
vt 0.890625 0.500000
vt 0.882812 1.000000
vt 0.882812 0.500000
vt 0.875000 1.000000
vt 0.875000 0.500000
vt 0.867188 1.000000
vt 0.867188 0.500000
vt 0.859375 1.000000
vt 0.859375 0.500000
vt 0.851562 1.000000
vt 0.851562 0.500000
vt 0.843750 1.000000
vt 0.843750 0.500000
vt 0.835938 1.000000
vt 0.835938 0.500000
vt 0.828125 1.000000
vt 0.828125 0.500000
vt 0.820312 1.000000
vt 0.820312 0.500000
vt 0.812500 1.000000
vt 0.812500 0.500000
vt 0.804688 1.000000
vt 0.804688 0.500000
vt 0.796875 1.000000
vt 0.796875 0.500000
vt 0.789062 1.000000
vt 0.789062 0.500000
vt 0.781250 1.000000
vt 0.781250 0.500000
vt 0.773438 1.000000
vt 0.773438 0.500000
vt 0.765625 1.000000
vt 0.765625 0.500000
vt 0.757812 1.000000
vt 0.757812 0.500000
vt 0.750000 1.000000
vt 0.750000 0.500000
vt 0.742188 1.000000
vt 0.742188 0.500000
vt 0.734375 1.000000
vt 0.734375 0.500000
vt 0.726562 1.000000
vt 0.726562 0.500000
vt 0.718750 1.000000
vt 0.718750 0.500000
vt 0.710938 1.000000
vt 0.710938 0.500000
vt 0.703125 1.000000
vt 0.703125 0.500000
vt 0.695312 1.000000
vt 0.695312 0.500000
vt 0.687500 1.000000
vt 0.687500 0.500000
vt 0.679688 1.000000
vt 0.679688 0.500000
vt 0.671875 1.000000
vt 0.671875 0.500000
vt 0.664062 1.000000
vt 0.664062 0.500000
vt 0.656250 1.000000
vt 0.656250 0.500000
vt 0.648438 1.000000
vt 0.648438 0.500000
vt 0.640625 1.000000
vt 0.640625 0.500000
vt 0.632812 1.000000
vt 0.632812 0.500000
vt 0.625000 1.000000
vt 0.625000 0.500000
vt 0.617188 1.000000
vt 0.617188 0.500000
vt 0.609375 1.000000
vt 0.609375 0.500000
vt 0.601562 1.000000
vt 0.601562 0.500000
vt 0.593750 1.000000
vt 0.593750 0.500000
vt 0.585938 1.000000
vt 0.585938 0.500000
vt 0.578125 1.000000
vt 0.578125 0.500000
vt 0.570312 1.000000
vt 0.570312 0.500000
vt 0.562500 1.000000
vt 0.562500 0.500000
vt 0.554688 1.000000
vt 0.554688 0.500000
vt 0.546875 1.000000
vt 0.546875 0.500000
vt 0.539062 1.000000
vt 0.539062 0.500000
vt 0.531250 1.000000
vt 0.531250 0.500000
vt 0.523438 1.000000
vt 0.523438 0.500000
vt 0.515625 1.000000
vt 0.515625 0.500000
vt 0.507812 1.000000
vt 0.507812 0.500000
vt 0.500000 1.000000
vt 0.500000 0.500000
vt 0.492188 1.000000
vt 0.492188 0.500000
vt 0.484375 1.000000
vt 0.484375 0.500000
vt 0.476562 1.000000
vt 0.476562 0.500000
vt 0.468750 1.000000
vt 0.468750 0.500000
vt 0.460938 1.000000
vt 0.460938 0.500000
vt 0.453125 1.000000
vt 0.453125 0.500000
vt 0.445312 1.000000
vt 0.445312 0.500000
vt 0.437500 1.000000
vt 0.437500 0.500000
vt 0.429688 1.000000
vt 0.429688 0.500000
vt 0.421875 1.000000
vt 0.421875 0.500000
vt 0.414062 1.000000
vt 0.414062 0.500000
vt 0.406250 1.000000
vt 0.406250 0.500000
vt 0.398438 1.000000
vt 0.398438 0.500000
vt 0.390625 1.000000
vt 0.390625 0.500000
vt 0.382812 1.000000
vt 0.382812 0.500000
vt 0.375000 1.000000
vt 0.375000 0.500000
vt 0.367188 1.000000
vt 0.367188 0.500000
vt 0.359375 1.000000
vt 0.359375 0.500000
vt 0.351562 1.000000
vt 0.351562 0.500000
vt 0.343750 1.000000
vt 0.343750 0.500000
vt 0.335938 1.000000
vt 0.335938 0.500000
vt 0.328125 1.000000
vt 0.328125 0.500000
vt 0.320312 1.000000
vt 0.320312 0.500000
vt 0.312500 1.000000
vt 0.312500 0.500000
vt 0.304688 1.000000
vt 0.304688 0.500000
vt 0.296875 1.000000
vt 0.296875 0.500000
vt 0.289062 1.000000
vt 0.289062 0.500000
vt 0.281250 1.000000
vt 0.281250 0.500000
vt 0.273438 1.000000
vt 0.273438 0.500000
vt 0.265625 1.000000
vt 0.265625 0.500000
vt 0.257812 1.000000
vt 0.257812 0.500000
vt 0.250000 1.000000
vt 0.250000 0.500000
vt 0.242188 1.000000
vt 0.242188 0.500000
vt 0.234375 1.000000
vt 0.234375 0.500000
vt 0.226562 1.000000
vt 0.226562 0.500000
vt 0.218750 1.000000
vt 0.218750 0.500000
vt 0.210938 1.000000
vt 0.210938 0.500000
vt 0.203125 1.000000
vt 0.203125 0.500000
vt 0.195312 1.000000
vt 0.195312 0.500000
vt 0.187500 1.000000
vt 0.187500 0.500000
vt 0.179688 1.000000
vt 0.179688 0.500000
vt 0.171875 1.000000
vt 0.171875 0.500000
vt 0.164062 1.000000
vt 0.164062 0.500000
vt 0.156250 1.000000
vt 0.156250 0.500000
vt 0.148438 1.000000
vt 0.148438 0.500000
vt 0.140625 1.000000
vt 0.140625 0.500000
vt 0.132812 1.000000
vt 0.132812 0.500000
vt 0.125000 1.000000
vt 0.125000 0.500000
vt 0.117188 1.000000
vt 0.117188 0.500000
vt 0.109375 1.000000
vt 0.109375 0.500000
vt 0.101562 1.000000
vt 0.101562 0.500000
vt 0.093750 1.000000
vt 0.093750 0.500000
vt 0.085938 1.000000
vt 0.085938 0.500000
vt 0.078125 1.000000
vt 0.078125 0.500000
vt 0.070312 1.000000
vt 0.070312 0.500000
vt 0.062500 1.000000
vt 0.062500 0.500000
vt 0.054688 1.000000
vt 0.054688 0.500000
vt 0.046875 1.000000
vt 0.046875 0.500000
vt 0.039062 1.000000
vt 0.039062 0.500000
vt 0.031250 1.000000
vt 0.031250 0.500000
vt 0.023438 1.000000
vt 0.023438 0.500000
vt 0.015625 1.000000
vt 0.015625 0.500000
vt 0.007812 1.000000
vt 0.007812 0.500000
vt 0.000000 1.000000
vt 0.000000 0.500000
vn 0.0245 0.0000 -0.9997
vn 0.0736 0.0000 -0.9973
vn 0.1224 0.0000 -0.9925
vn 0.1710 0.0000 -0.9853
vn 0.2191 0.0000 -0.9757
vn 0.2667 0.0000 -0.9638
vn 0.3137 0.0000 -0.9495
vn 0.3599 0.0000 -0.9330
vn 0.4052 0.0000 -0.9142
vn 0.4496 0.0000 -0.8932
vn 0.4929 0.0000 -0.8701
vn 0.5350 0.0000 -0.8448
vn 0.5758 0.0000 -0.8176
vn 0.6152 0.0000 -0.7884
vn 0.6532 0.0000 -0.7572
vn 0.6895 0.0000 -0.7242
vn 0.7242 0.0000 -0.6895
vn 0.7572 -0.0000 -0.6532
vn 0.7884 0.0000 -0.6152
vn 0.8176 0.0000 -0.5758
vn 0.8449 0.0000 -0.5350
vn 0.8701 0.0000 -0.4929
vn 0.8932 0.0000 -0.4496
vn 0.9142 0.0000 -0.4052
vn 0.9330 0.0000 -0.3599
vn 0.9495 0.0000 -0.3137
vn 0.9638 0.0000 -0.2667
vn 0.9757 -0.0000 -0.2191
vn 0.9853 -0.0000 -0.1710
vn 0.9925 -0.0000 -0.1224
vn 0.9973 -0.0000 -0.0736
vn 0.9997 -0.0000 -0.0245
vn 0.9997 -0.0000 0.0245
vn 0.9973 -0.0000 0.0736
vn 0.9925 -0.0000 0.1224
vn 0.9853 -0.0000 0.1710
vn 0.9757 -0.0000 0.2191
vn 0.9638 -0.0000 0.2667
vn 0.9495 0.0000 0.3137
vn 0.9330 -0.0000 0.3599
vn 0.9142 -0.0000 0.4052
vn 0.8932 -0.0000 0.4496
vn 0.8701 -0.0000 0.4929
vn 0.8448 -0.0000 0.5350
vn 0.8176 -0.0000 0.5758
vn 0.7884 -0.0000 0.6152
vn 0.7572 0.0000 0.6532
vn 0.7242 0.0000 0.6895
vn 0.6895 0.0000 0.7242
vn 0.6532 0.0000 0.7572
vn 0.6152 0.0000 0.7883
vn 0.5758 0.0000 0.8176
vn 0.5350 0.0000 0.8449
vn 0.4929 0.0000 0.8701
vn 0.4496 0.0000 0.8932
vn 0.4052 0.0000 0.9142
vn 0.3599 0.0000 0.9330
vn 0.3137 0.0000 0.9495
vn 0.2667 0.0000 0.9638
vn 0.2191 0.0000 0.9757
vn 0.1709 0.0000 0.9853
vn 0.1224 0.0000 0.9925
vn 0.0736 0.0000 0.9973
vn 0.0245 0.0000 0.9997
vn -0.0245 0.0000 0.9997
vn -0.0736 0.0000 0.9973
vn -0.1224 0.0000 0.9925
vn -0.1710 0.0000 0.9853
vn -0.2191 0.0000 0.9757
vn -0.2667 0.0000 0.9638
vn -0.3137 0.0000 0.9495
vn -0.3599 0.0000 0.9330
vn -0.4052 0.0000 0.9142
vn -0.4496 0.0000 0.8932
vn -0.4929 0.0000 0.8701
vn -0.5350 0.0000 0.8449
vn -0.5758 0.0000 0.8176
vn -0.6152 0.0000 0.7884
vn -0.6532 0.0000 0.7572
vn -0.6895 0.0000 0.7243
vn -0.7243 0.0000 0.6895
vn -0.7572 -0.0000 0.6532
vn -0.7884 -0.0000 0.6152
vn -0.8176 -0.0000 0.5758
vn -0.8448 -0.0000 0.5350
vn -0.8701 -0.0000 0.4929
vn -0.8932 -0.0000 0.4496
vn -0.9142 -0.0000 0.4053
vn -0.9330 -0.0000 0.3599
vn -0.9495 -0.0000 0.3137
vn -0.9638 -0.0000 0.2667
vn -0.9757 0.0000 0.2191
vn -0.9853 0.0000 0.1710
vn -0.9925 0.0000 0.1224
vn -0.9973 0.0000 0.0736
vn -0.9997 0.0000 0.0245
vn -0.9997 0.0000 -0.0245
vn -0.9973 0.0000 -0.0736
vn -0.9925 0.0000 -0.1224
vn -0.9853 0.0000 -0.1710
vn -0.9757 0.0000 -0.2191
vn -0.9638 0.0000 -0.2667
vn -0.9495 0.0000 -0.3137
vn -0.9330 0.0000 -0.3599
vn -0.9142 0.0000 -0.4052
vn -0.8932 0.0000 -0.4496
vn -0.8701 0.0000 -0.4929
vn -0.8449 0.0000 -0.5350
vn -0.8176 0.0000 -0.5758
vn -0.7883 0.0000 -0.6152
vn -0.7572 0.0000 -0.6532
vn -0.7242 0.0000 -0.6895
vn -0.6895 0.0000 -0.7242
vn -0.6532 0.0000 -0.7572
vn -0.6152 0.0000 -0.7884
vn -0.5758 0.0000 -0.8176
vn -0.5350 0.0000 -0.8449
vn -0.4929 0.0000 -0.8701
vn -0.4496 0.0000 -0.8932
vn -0.4052 0.0000 -0.9142
vn -0.3599 0.0000 -0.9330
vn -0.3137 0.0000 -0.9495
vn -0.2667 0.0000 -0.9638
vn -0.2191 0.0000 -0.9757
vn -0.1709 0.0000 -0.9853
vn -0.1224 0.0000 -0.9925
vn -0.0736 0.0000 -0.9973
vn -0.0245 0.0000 -0.9997
usemtl None.001
s 1
f 1/1/1 2/2/1 3/3/1 4/4/1
s 2
f 4/4/2 3/3/2 5/5/2 6/6/2
s 3
f 6/6/3 5/5/3 7/7/3 8/8/3
s 4
f 8/8/4 7/7/4 9/9/4 10/10/4
s 5
f 10/10/5 9/9/5 11/11/5 12/12/5
s 6
f 12/12/6 11/11/6 13/13/6 14/14/6
s 7
f 14/14/7 13/13/7 15/15/7 16/16/7
s 8
f 16/16/8 15/15/8 17/17/8 18/18/8
s 9
f 18/18/9 17/17/9 19/19/9 20/20/9
s 10
f 20/20/10 19/19/10 21/21/10 22/22/10
s 11
f 22/22/11 21/21/11 23/23/11 24/24/11
s 12
f 24/24/12 23/23/12 25/25/12 26/26/12
s 13
f 26/26/13 25/25/13 27/27/13 28/28/13
s 14
f 28/28/14 27/27/14 29/29/14 30/30/14
s 15
f 30/30/15 29/29/15 31/31/15 32/32/15
s 16
f 32/32/16 31/31/16 33/33/16 34/34/16
s 17
f 34/34/17 33/33/17 35/35/17 36/36/17
s 18
f 36/36/18 35/35/18 37/37/18 38/38/18
s 19
f 38/38/19 37/37/19 39/39/19 40/40/19
s 20
f 40/40/20 39/39/20 41/41/20 42/42/20
s 21
f 42/42/21 41/41/21 43/43/21 44/44/21
s 22
f 44/44/22 43/43/22 45/45/22 46/46/22
s 23
f 46/46/23 45/45/23 47/47/23 48/48/23
s 24
f 48/48/24 47/47/24 49/49/24 50/50/24
s 25
f 50/50/25 49/49/25 51/51/25 52/52/25
s 26
f 52/52/26 51/51/26 53/53/26 54/54/26
s 27
f 54/54/27 53/53/27 55/55/27 56/56/27
s 28
f 56/56/28 55/55/28 57/57/28 58/58/28
s 29
f 58/58/29 57/57/29 59/59/29 60/60/29
s 30
f 60/60/30 59/59/30 61/61/30 62/62/30
s 31
f 62/62/31 61/61/31 63/63/31 64/64/31
s 32
f 64/64/32 63/63/32 65/65/32 66/66/32
s 33
f 66/66/33 65/65/33 67/67/33 68/68/33
s 34
f 68/68/34 67/67/34 69/69/34 70/70/34
s 35
f 70/70/35 69/69/35 71/71/35 72/72/35
s 36
f 72/72/36 71/71/36 73/73/36 74/74/36
s 37
f 74/74/37 73/73/37 75/75/37 76/76/37
s 38
f 76/76/38 75/75/38 77/77/38 78/78/38
s 39
f 78/78/39 77/77/39 79/79/39 80/80/39
s 40
f 80/80/40 79/79/40 81/81/40 82/82/40
s 41
f 82/82/41 81/81/41 83/83/41 84/84/41
s 42
f 84/84/42 83/83/42 85/85/42 86/86/42
s 43
f 86/86/43 85/85/43 87/87/43 88/88/43
s 44
f 88/88/44 87/87/44 89/89/44 90/90/44
s 45
f 90/90/45 89/89/45 91/91/45 92/92/45
s 46
f 92/92/46 91/91/46 93/93/46 94/94/46
s 47
f 94/94/47 93/93/47 95/95/47 96/96/47
s 48
f 96/96/48 95/95/48 97/97/48 98/98/48
s 49
f 98/98/49 97/97/49 99/99/49 100/100/49
s 50
f 100/100/50 99/99/50 101/101/50 102/102/50
s 51
f 102/102/51 101/101/51 103/103/51 104/104/51
s 52
f 104/104/52 103/103/52 105/105/52 106/106/52
s 53
f 106/106/53 105/105/53 107/107/53 108/108/53
s 54
f 108/108/54 107/107/54 109/109/54 110/110/54
s 55
f 110/110/55 109/109/55 111/111/55 112/112/55
s 56
f 112/112/56 111/111/56 113/113/56 114/114/56
s 57
f 114/114/57 113/113/57 115/115/57 116/116/57
s 58
f 116/116/58 115/115/58 117/117/58 118/118/58
s 59
f 118/118/59 117/117/59 119/119/59 120/120/59
s 60
f 120/120/60 119/119/60 121/121/60 122/122/60
s 61
f 122/122/61 121/121/61 123/123/61 124/124/61
s 62
f 124/124/62 123/123/62 125/125/62 126/126/62
s 63
f 126/126/63 125/125/63 127/127/63 128/128/63
s 64
f 128/128/64 127/127/64 129/129/64 130/130/64
s 65
f 130/130/65 129/129/65 131/131/65 132/132/65
s 66
f 132/132/66 131/131/66 133/133/66 134/134/66
s 67
f 134/134/67 133/133/67 135/135/67 136/136/67
s 68
f 136/136/68 135/135/68 137/137/68 138/138/68
s 69
f 138/138/69 137/137/69 139/139/69 140/140/69
s 70
f 140/140/70 139/139/70 141/141/70 142/142/70
s 71
f 142/142/71 141/141/71 143/143/71 144/144/71
s 72
f 144/144/72 143/143/72 145/145/72 146/146/72
s 73
f 146/146/73 145/145/73 147/147/73 148/148/73
s 74
f 148/148/74 147/147/74 149/149/74 150/150/74
s 75
f 150/150/75 149/149/75 151/151/75 152/152/75
s 76
f 152/152/76 151/151/76 153/153/76 154/154/76
s 77
f 154/154/77 153/153/77 155/155/77 156/156/77
s 78
f 156/156/78 155/155/78 157/157/78 158/158/78
s 79
f 158/158/79 157/157/79 159/159/79 160/160/79
s 80
f 160/160/80 159/159/80 161/161/80 162/162/80
s 81
f 162/162/81 161/161/81 163/163/81 164/164/81
s 82
f 164/164/82 163/163/82 165/165/82 166/166/82
s 83
f 166/166/83 165/165/83 167/167/83 168/168/83
s 84
f 168/168/84 167/167/84 169/169/84 170/170/84
s 85
f 170/170/85 169/169/85 171/171/85 172/172/85
s 86
f 172/172/86 171/171/86 173/173/86 174/174/86
s 87
f 174/174/87 173/173/87 175/175/87 176/176/87
s 88
f 176/176/88 175/175/88 177/177/88 178/178/88
s 89
f 178/178/89 177/177/89 179/179/89 180/180/89
s 90
f 180/180/90 179/179/90 181/181/90 182/182/90
s 91
f 182/182/91 181/181/91 183/183/91 184/184/91
s 92
f 184/184/92 183/183/92 185/185/92 186/186/92
s 93
f 186/186/93 185/185/93 187/187/93 188/188/93
s 94
f 188/188/94 187/187/94 189/189/94 190/190/94
s 95
f 190/190/95 189/189/95 191/191/95 192/192/95
s 96
f 192/192/96 191/191/96 193/193/96 194/194/96
s 97
f 194/194/97 193/193/97 195/195/97 196/196/97
s 98
f 196/196/98 195/195/98 197/197/98 198/198/98
s 99
f 198/198/99 197/197/99 199/199/99 200/200/99
s 100
f 200/200/100 199/199/100 201/201/100 202/202/100
s 101
f 202/202/101 201/201/101 203/203/101 204/204/101
s 102
f 204/204/102 203/203/102 205/205/102 206/206/102
s 103
f 206/206/103 205/205/103 207/207/103 208/208/103
s 104
f 208/208/104 207/207/104 209/209/104 210/210/104
s 105
f 210/210/105 209/209/105 211/211/105 212/212/105
s 106
f 212/212/106 211/211/106 213/213/106 214/214/106
s 107
f 214/214/107 213/213/107 215/215/107 216/216/107
s 108
f 216/216/108 215/215/108 217/217/108 218/218/108
s 109
f 218/218/109 217/217/109 219/219/109 220/220/109
s 110
f 220/220/110 219/219/110 221/221/110 222/222/110
s 111
f 222/222/111 221/221/111 223/223/111 224/224/111
s 112
f 224/224/112 223/223/112 225/225/112 226/226/112
s 113
f 226/226/113 225/225/113 227/227/113 228/228/113
s 114
f 228/228/114 227/227/114 229/229/114 230/230/114
s 115
f 230/230/115 229/229/115 231/231/115 232/232/115
s 116
f 232/232/116 231/231/116 233/233/116 234/234/116
s 117
f 234/234/117 233/233/117 235/235/117 236/236/117
s 118
f 236/236/118 235/235/118 237/237/118 238/238/118
s 119
f 238/238/119 237/237/119 239/239/119 240/240/119
s 120
f 240/240/120 239/239/120 241/241/120 242/242/120
s 121
f 242/242/121 241/241/121 243/243/121 244/244/121
s 122
f 244/244/122 243/243/122 245/245/122 246/246/122
s 123
f 246/246/123 245/245/123 247/247/123 248/248/123
s 124
f 248/248/124 247/247/124 249/249/124 250/250/124
s 125
f 250/250/125 249/249/125 251/251/125 252/252/125
s 126
f 252/252/126 251/251/126 253/253/126 254/254/126
s 127
f 254/254/127 253/253/127 255/255/127 256/256/127
s 128
f 256/256/128 255/255/128 2/257/128 1/258/128
