# Blender v2.81 (sub 16) OBJ File: ''
# www.blender.org
mtllib cube_screen_ufo_half_sphere.mtl
o Cube_Cube.001
v -1.100000 -1.100000 1.100000
v -1.100000 1.100000 1.100000
v -1.100000 -1.100000 -1.100000
v -1.100000 1.100000 -1.100000
v 1.100000 -1.100000 1.100000
v 1.100000 1.100000 1.100000
v 1.100000 -1.100000 -1.100000
v 1.100000 1.100000 -1.100000
vt 1.001123 -0.002222
vt 1.001123 1.002222
vt 0.750561 1.002222
vt 0.750561 -0.002222
vt 0.500000 1.002222
vt 0.500000 -0.002222
vt 0.249439 1.002222
vt 0.249439 -0.002222
vt -0.001123 1.002222
vt -0.001123 -0.002222
vn -1.0000 0.0000 0.0000
vn 0.0000 0.0000 -1.0000
vn 1.0000 0.0000 0.0000
vn 0.0000 0.0000 1.0000
usemtl Material.002
s off
f 1/1/1 2/2/1 4/3/1 3/4/1
f 3/4/2 4/3/2 8/5/2 7/6/2
f 7/6/3 8/5/3 6/7/3 5/8/3
f 5/8/4 6/7/4 2/9/4 1/10/4
