# Blender v2.81 (sub 16) OBJ File: ''
# www.blender.org
mtllib screen_ufo_half_sphere.mtl
o Cylinder
v 0.000000 -1.819735 -1.500000
v 0.000000 1.819735 -1.500000
v 0.073602 -1.819735 -1.498193
v 0.073602 1.819735 -1.498193
v 0.147026 -1.819735 -1.492777
v 0.147026 1.819735 -1.492777
v 0.220096 -1.819735 -1.483765
v 0.220096 1.819735 -1.483765
v 0.292636 -1.819735 -1.471178
v 0.292636 1.819735 -1.471178
v 0.364470 -1.819735 -1.455047
v 0.364470 1.819735 -1.455047
v 0.435427 -1.819735 -1.435410
v 0.435427 1.819735 -1.435410
v 0.505335 -1.819735 -1.412316
v 0.505335 1.819735 -1.412316
v 0.574025 -1.819735 -1.385819
v 0.574025 1.819735 -1.385819
v 0.641333 -1.819735 -1.355984
v 0.641333 1.819735 -1.355984
v 0.707095 -1.819735 -1.322882
v 0.707095 1.819735 -1.322882
v 0.771154 -1.819735 -1.286593
v 0.771154 1.819735 -1.286593
v 0.833355 -1.819735 -1.247204
v 0.833355 1.819735 -1.247204
v 0.893549 -1.819735 -1.204811
v 0.893549 1.819735 -1.204811
v 0.951590 -1.819735 -1.159516
v 0.951590 1.819735 -1.159516
v 1.007339 -1.819735 -1.111427
v 1.007339 1.819735 -1.111427
v 1.060660 -1.819735 -1.060660
v 1.060660 1.819735 -1.060660
v 1.111427 -1.819735 -1.007338
v 1.111427 1.819735 -1.007338
v 1.159516 -1.819735 -0.951590
v 1.159516 1.819735 -0.951590
v 1.204811 -1.819735 -0.893549
v 1.204811 1.819735 -0.893549
v 1.247205 -1.819735 -0.833355
v 1.247205 1.819735 -0.833355
v 1.286593 -1.819735 -0.771154
v 1.286593 1.819735 -0.771154
v 1.322882 -1.819735 -0.707095
v 1.322882 1.819735 -0.707095
v 1.355984 -1.819735 -0.641332
v 1.355984 1.819735 -0.641332
v 1.385819 -1.819735 -0.574025
v 1.385819 1.819735 -0.574025
v 1.412316 -1.819735 -0.505334
v 1.412316 1.819735 -0.505334
v 1.435411 -1.819735 -0.435427
v 1.435411 1.819735 -0.435427
v 1.455047 -1.819735 -0.364470
v 1.455047 1.819735 -0.364470
v 1.471178 -1.819735 -0.292635
v 1.471178 1.819735 -0.292635
v 1.483765 -1.819735 -0.220095
v 1.483765 1.819735 -0.220095
v 1.492777 -1.819735 -0.147025
v 1.492777 1.819735 -0.147025
v 1.498193 -1.819735 -0.073601
v 1.498193 1.819735 -0.073601
v 1.500000 -1.819735 0.000001
v 1.500000 1.819735 0.000001
v 1.498193 -1.819735 0.073602
v 1.498193 1.819735 0.073602
v 1.492777 -1.819735 0.147026
v 1.492777 1.819735 0.147026
v 1.483765 -1.819735 0.220096
v 1.483765 1.819735 0.220096
v 1.471178 -1.819735 0.292636
v 1.471178 1.819735 0.292636
v 1.455047 -1.819735 0.364471
v 1.455047 1.819735 0.364471
v 1.435410 -1.819735 0.435428
v 1.435410 1.819735 0.435428
v 1.412316 -1.819735 0.505336
v 1.412316 1.819735 0.505336
v 1.385819 -1.819735 0.574026
v 1.385819 1.819735 0.574026
v 1.355984 -1.819735 0.641333
v 1.355984 1.819735 0.641333
v 1.322882 -1.819735 0.707096
v 1.322882 1.819735 0.707096
v 1.286593 -1.819735 0.771155
v 1.286593 1.819735 0.771155
v 1.247204 -1.819735 0.833356
v 1.247204 1.819735 0.833356
v 1.204811 -1.819735 0.893549
v 1.204811 1.819735 0.893549
v 1.159516 -1.819735 0.951590
v 1.159516 1.819735 0.951590
v 1.111427 -1.819735 1.007338
v 1.111427 1.819735 1.007338
v 1.060660 -1.819735 1.060660
v 1.060660 1.819735 1.060660
v 1.007339 -1.819735 1.111426
v 1.007339 1.819735 1.111426
v 0.951590 -1.819735 1.159515
v 0.951590 1.819735 1.159515
v 0.893550 -1.819735 1.204811
v 0.893550 1.819735 1.204811
v 0.833356 -1.819735 1.247204
v 0.833356 1.819735 1.247204
v 0.771155 -1.819735 1.286592
v 0.771155 1.819735 1.286592
v 0.707096 -1.819735 1.322881
v 0.707096 1.819735 1.322881
v 0.641334 -1.819735 1.355983
v 0.641334 1.819735 1.355983
v 0.574027 -1.819735 1.385819
v 0.574027 1.819735 1.385819
v 0.505336 -1.819735 1.412316
v 0.505336 1.819735 1.412316
v 0.435429 -1.819735 1.435410
v 0.435429 1.819735 1.435410
v 0.364472 -1.819735 1.455046
v 0.364472 1.819735 1.455046
v 0.292638 -1.819735 1.471178
v 0.292638 1.819735 1.471178
v 0.220098 -1.819735 1.483764
v 0.220098 1.819735 1.483764
v 0.147028 -1.819735 1.492777
v 0.147028 1.819735 1.492777
v 0.073604 -1.819735 1.498193
v 0.073604 1.819735 1.498193
v 0.000003 -1.819735 1.500000
v 0.000003 1.819735 1.500000
v -0.073599 -1.819735 1.498193
v -0.073599 1.819735 1.498193
v -0.147023 -1.819735 1.492777
v -0.147023 1.819735 1.492777
v -0.220093 -1.819735 1.483765
v -0.220093 1.819735 1.483765
v -0.292632 -1.819735 1.471179
v -0.292632 1.819735 1.471179
v -0.364467 -1.819735 1.455048
v -0.364467 1.819735 1.455048
v -0.435424 -1.819735 1.435411
v -0.435424 1.819735 1.435411
v -0.505331 -1.819735 1.412317
v -0.505331 1.819735 1.412317
v -0.574022 -1.819735 1.385821
v -0.574022 1.819735 1.385821
v -0.641329 -1.819735 1.355986
v -0.641329 1.819735 1.355986
v -0.707091 -1.819735 1.322884
v -0.707091 1.819735 1.322884
v -0.771150 -1.819735 1.286595
v -0.771150 1.819735 1.286595
v -0.833352 -1.819735 1.247207
v -0.833352 1.819735 1.247207
v -0.893545 -1.819735 1.204814
v -0.893545 1.819735 1.204814
v -0.951586 -1.819735 1.159519
v -0.951586 1.819735 1.159519
v -1.007335 -1.819735 1.111430
v -1.007335 1.819735 1.111430
v -1.060657 -1.819735 1.060664
v -1.060657 1.819735 1.060664
v -1.111423 -1.819735 1.007342
v -1.111423 1.819735 1.007342
v -1.159513 -1.819735 0.951594
v -1.159513 1.819735 0.951594
v -1.204808 -1.819735 0.893553
v -1.204808 1.819735 0.893553
v -1.247202 -1.819735 0.833359
v -1.247202 1.819735 0.833359
v -1.286591 -1.819735 0.771158
v -1.286591 1.819735 0.771158
v -1.322880 -1.819735 0.707099
v -1.322880 1.819735 0.707099
v -1.355982 -1.819735 0.641336
v -1.355982 1.819735 0.641336
v -1.385818 -1.819735 0.574029
v -1.385818 1.819735 0.574029
v -1.412315 -1.819735 0.505338
v -1.412315 1.819735 0.505338
v -1.435410 -1.819735 0.435430
v -1.435410 1.819735 0.435430
v -1.455046 -1.819735 0.364473
v -1.455046 1.819735 0.364473
v -1.471177 -1.819735 0.292638
v -1.471177 1.819735 0.292638
v -1.483764 -1.819735 0.220098
v -1.483764 1.819735 0.220098
v -1.492777 -1.819735 0.147028
v -1.492777 1.819735 0.147028
v -1.498193 -1.819735 0.073604
v -1.498193 1.819735 0.073604
v -1.500000 -1.819735 0.000002
v -1.500000 1.819735 0.000002
v -1.498193 -1.819735 -0.073600
v -1.498193 1.819735 -0.073600
v -1.492777 -1.819735 -0.147024
v -1.492777 1.819735 -0.147024
v -1.483765 -1.819735 -0.220094
v -1.483765 1.819735 -0.220094
v -1.471178 -1.819735 -0.292634
v -1.471178 1.819735 -0.292634
v -1.455047 -1.819735 -0.364469
v -1.455047 1.819735 -0.364469
v -1.435411 -1.819735 -0.435426
v -1.435411 1.819735 -0.435426
v -1.412316 -1.819735 -0.505334
v -1.412316 1.819735 -0.505334
v -1.385819 -1.819735 -0.574025
v -1.385819 1.819735 -0.574025
v -1.355984 -1.819735 -0.641332
v -1.355984 1.819735 -0.641332
v -1.322882 -1.819735 -0.707095
v -1.322882 1.819735 -0.707095
v -1.286593 -1.819735 -0.771154
v -1.286593 1.819735 -0.771154
v -1.247204 -1.819735 -0.833356
v -1.247204 1.819735 -0.833356
v -1.204811 -1.819735 -0.893549
v -1.204811 1.819735 -0.893549
v -1.159515 -1.819735 -0.951591
v -1.159515 1.819735 -0.951591
v -1.111426 -1.819735 -1.007339
v -1.111426 1.819735 -1.007339
v -1.060659 -1.819735 -1.060661
v -1.060659 1.819735 -1.060661
v -1.007337 -1.819735 -1.111428
v -1.007337 1.819735 -1.111428
v -0.951589 -1.819735 -1.159517
v -0.951589 1.819735 -1.159517
v -0.893547 -1.819735 -1.204812
v -0.893547 1.819735 -1.204812
v -0.833354 -1.819735 -1.247205
v -0.833354 1.819735 -1.247205
v -0.771152 -1.819735 -1.286594
v -0.771152 1.819735 -1.286594
v -0.707093 -1.819735 -1.322883
v -0.707093 1.819735 -1.322883
v -0.641330 -1.819735 -1.355985
v -0.641330 1.819735 -1.355985
v -0.574023 -1.819735 -1.385820
v -0.574023 1.819735 -1.385820
v -0.505332 -1.819735 -1.412317
v -0.505332 1.819735 -1.412317
v -0.435424 -1.819735 -1.435411
v -0.435424 1.819735 -1.435411
v -0.364467 -1.819735 -1.455048
v -0.364467 1.819735 -1.455048
v -0.292632 -1.819735 -1.471179
v -0.292632 1.819735 -1.471179
v -0.220092 -1.819735 -1.483765
v -0.220092 1.819735 -1.483765
v -0.147022 -1.819735 -1.492778
v -0.147022 1.819735 -1.492778
v -0.073597 -1.819735 -1.498193
v -0.073597 1.819735 -1.498193
vt 1.000000 0.500000
vt 1.000000 1.000000
vt 0.992188 1.000000
vt 0.992188 0.500000
vt 0.984375 1.000000
vt 0.984375 0.500000
vt 0.976562 1.000000
vt 0.976562 0.500000
vt 0.968750 1.000000
vt 0.968750 0.500000
vt 0.960938 1.000000
vt 0.960938 0.500000
vt 0.953125 1.000000
vt 0.953125 0.500000
vt 0.945312 1.000000
vt 0.945312 0.500000
vt 0.937500 1.000000
vt 0.937500 0.500000
vt 0.929688 1.000000
vt 0.929688 0.500000
vt 0.921875 1.000000
vt 0.921875 0.500000
vt 0.914062 1.000000
vt 0.914062 0.500000
vt 0.906250 1.000000
vt 0.906250 0.500000
vt 0.898438 1.000000
vt 0.898438 0.500000
vt 0.890625 1.000000
vt 0.890625 0.500000
vt 0.882812 1.000000
vt 0.882812 0.500000
vt 0.875000 1.000000
vt 0.875000 0.500000
vt 0.867188 1.000000
vt 0.867188 0.500000
vt 0.859375 1.000000
vt 0.859375 0.500000
vt 0.851562 1.000000
vt 0.851562 0.500000
vt 0.843750 1.000000
vt 0.843750 0.500000
vt 0.835938 1.000000
vt 0.835938 0.500000
vt 0.828125 1.000000
vt 0.828125 0.500000
vt 0.820312 1.000000
vt 0.820312 0.500000
vt 0.812500 1.000000
vt 0.812500 0.500000
vt 0.804688 1.000000
vt 0.804688 0.500000
vt 0.796875 1.000000
vt 0.796875 0.500000
vt 0.789062 1.000000
vt 0.789062 0.500000
vt 0.781250 1.000000
vt 0.781250 0.500000
vt 0.773438 1.000000
vt 0.773438 0.500000
vt 0.765625 1.000000
vt 0.765625 0.500000
vt 0.757812 1.000000
vt 0.757812 0.500000
vt 0.750000 1.000000
vt 0.750000 0.500000
vt 0.742188 1.000000
vt 0.742188 0.500000
vt 0.734375 1.000000
vt 0.734375 0.500000
vt 0.726562 1.000000
vt 0.726562 0.500000
vt 0.718750 1.000000
vt 0.718750 0.500000
vt 0.710938 1.000000
vt 0.710938 0.500000
vt 0.703125 1.000000
vt 0.703125 0.500000
vt 0.695312 1.000000
vt 0.695312 0.500000
vt 0.687500 1.000000
vt 0.687500 0.500000
vt 0.679688 1.000000
vt 0.679688 0.500000
vt 0.671875 1.000000
vt 0.671875 0.500000
vt 0.664062 1.000000
vt 0.664062 0.500000
vt 0.656250 1.000000
vt 0.656250 0.500000
vt 0.648438 1.000000
vt 0.648438 0.500000
vt 0.640625 1.000000
vt 0.640625 0.500000
vt 0.632812 1.000000
vt 0.632812 0.500000
vt 0.625000 1.000000
vt 0.625000 0.500000
vt 0.617188 1.000000
vt 0.617188 0.500000
vt 0.609375 1.000000
vt 0.609375 0.500000
vt 0.601562 1.000000
vt 0.601562 0.500000
vt 0.593750 1.000000
vt 0.593750 0.500000
vt 0.585938 1.000000
vt 0.585938 0.500000
vt 0.578125 1.000000
vt 0.578125 0.500000
vt 0.570312 1.000000
vt 0.570312 0.500000
vt 0.562500 1.000000
vt 0.562500 0.500000
vt 0.554688 1.000000
vt 0.554688 0.500000
vt 0.546875 1.000000
vt 0.546875 0.500000
vt 0.539062 1.000000
vt 0.539062 0.500000
vt 0.531250 1.000000
vt 0.531250 0.500000
vt 0.523438 1.000000
vt 0.523438 0.500000
vt 0.515625 1.000000
vt 0.515625 0.500000
vt 0.507812 1.000000
vt 0.507812 0.500000
vt 0.500000 1.000000
vt 0.500000 0.500000
vt 0.492188 1.000000
vt 0.492188 0.500000
vt 0.484375 1.000000
vt 0.484375 0.500000
vt 0.476562 1.000000
vt 0.476562 0.500000
vt 0.468750 1.000000
vt 0.468750 0.500000
vt 0.460938 1.000000
vt 0.460938 0.500000
vt 0.453125 1.000000
vt 0.453125 0.500000
vt 0.445312 1.000000
vt 0.445312 0.500000
vt 0.437500 1.000000
vt 0.437500 0.500000
vt 0.429688 1.000000
vt 0.429688 0.500000
vt 0.421875 1.000000
vt 0.421875 0.500000
vt 0.414062 1.000000
vt 0.414062 0.500000
vt 0.406250 1.000000
vt 0.406250 0.500000
vt 0.398438 1.000000
vt 0.398438 0.500000
vt 0.390625 1.000000
vt 0.390625 0.500000
vt 0.382812 1.000000
vt 0.382812 0.500000
vt 0.375000 1.000000
vt 0.375000 0.500000
vt 0.367188 1.000000
vt 0.367188 0.500000
vt 0.359375 1.000000
vt 0.359375 0.500000
vt 0.351562 1.000000
vt 0.351562 0.500000
vt 0.343750 1.000000
vt 0.343750 0.500000
vt 0.335938 1.000000
vt 0.335938 0.500000
vt 0.328125 1.000000
vt 0.328125 0.500000
vt 0.320312 1.000000
vt 0.320312 0.500000
vt 0.312500 1.000000
vt 0.312500 0.500000
vt 0.304688 1.000000
vt 0.304688 0.500000
vt 0.296875 1.000000
vt 0.296875 0.500000
vt 0.289062 1.000000
vt 0.289062 0.500000
vt 0.281250 1.000000
vt 0.281250 0.500000
vt 0.273438 1.000000
vt 0.273438 0.500000
vt 0.265625 1.000000
vt 0.265625 0.500000
vt 0.257812 1.000000
vt 0.257812 0.500000
vt 0.250000 1.000000
vt 0.250000 0.500000
vt 0.242188 1.000000
vt 0.242188 0.500000
vt 0.234375 1.000000
vt 0.234375 0.500000
vt 0.226562 1.000000
vt 0.226562 0.500000
vt 0.218750 1.000000
vt 0.218750 0.500000
vt 0.210938 1.000000
vt 0.210938 0.500000
vt 0.203125 1.000000
vt 0.203125 0.500000
vt 0.195312 1.000000
vt 0.195312 0.500000
vt 0.187500 1.000000
vt 0.187500 0.500000
vt 0.179688 1.000000
vt 0.179688 0.500000
vt 0.171875 1.000000
vt 0.171875 0.500000
vt 0.164062 1.000000
vt 0.164062 0.500000
vt 0.156250 1.000000
vt 0.156250 0.500000
vt 0.148438 1.000000
vt 0.148438 0.500000
vt 0.140625 1.000000
vt 0.140625 0.500000
vt 0.132812 1.000000
vt 0.132812 0.500000
vt 0.125000 1.000000
vt 0.125000 0.500000
vt 0.117188 1.000000
vt 0.117188 0.500000
vt 0.109375 1.000000
vt 0.109375 0.500000
vt 0.101562 1.000000
vt 0.101562 0.500000
vt 0.093750 1.000000
vt 0.093750 0.500000
vt 0.085938 1.000000
vt 0.085938 0.500000
vt 0.078125 1.000000
vt 0.078125 0.500000
vt 0.070312 1.000000
vt 0.070312 0.500000
vt 0.062500 1.000000
vt 0.062500 0.500000
vt 0.054688 1.000000
vt 0.054688 0.500000
vt 0.046875 1.000000
vt 0.046875 0.500000
vt 0.039062 1.000000
vt 0.039062 0.500000
vt 0.031250 1.000000
vt 0.031250 0.500000
vt 0.023438 1.000000
vt 0.023438 0.500000
vt 0.015625 1.000000
vt 0.015625 0.500000
vt 0.007812 1.000000
vt 0.007812 0.500000
vt 0.000000 1.000000
vt 0.000000 0.500000
vn 0.0245 0.0000 -0.9997
vn 0.0736 0.0000 -0.9973
vn 0.1224 0.0000 -0.9925
vn 0.1710 0.0000 -0.9853
vn 0.2191 0.0000 -0.9757
vn 0.2667 0.0000 -0.9638
vn 0.3137 0.0000 -0.9495
vn 0.3599 0.0000 -0.9330
vn 0.4052 0.0000 -0.9142
vn 0.4496 0.0000 -0.8932
vn 0.4929 0.0000 -0.8701
vn 0.5350 0.0000 -0.8449
vn 0.5758 0.0000 -0.8176
vn 0.6152 0.0000 -0.7883
vn 0.6532 0.0000 -0.7572
vn 0.6895 0.0000 -0.7242
vn 0.7242 0.0000 -0.6895
vn 0.7572 0.0000 -0.6532
vn 0.7883 0.0000 -0.6152
vn 0.8176 0.0000 -0.5758
vn 0.8449 0.0000 -0.5350
vn 0.8701 0.0000 -0.4929
vn 0.8932 0.0000 -0.4496
vn 0.9142 0.0000 -0.4052
vn 0.9330 0.0000 -0.3599
vn 0.9495 0.0000 -0.3137
vn 0.9638 0.0000 -0.2667
vn 0.9757 0.0000 -0.2191
vn 0.9853 0.0000 -0.1710
vn 0.9925 0.0000 -0.1224
vn 0.9973 0.0000 -0.0736
vn 0.9997 0.0000 -0.0245
vn 0.9997 0.0000 0.0245
vn 0.9973 0.0000 0.0736
vn 0.9925 0.0000 0.1224
vn 0.9853 0.0000 0.1710
vn 0.9757 0.0000 0.2191
vn 0.9638 0.0000 0.2667
vn 0.9495 0.0000 0.3137
vn 0.9330 0.0000 0.3599
vn 0.9142 0.0000 0.4052
vn 0.8932 0.0000 0.4496
vn 0.8701 0.0000 0.4929
vn 0.8449 0.0000 0.5350
vn 0.8176 0.0000 0.5758
vn 0.7883 0.0000 0.6152
vn 0.7572 0.0000 0.6532
vn 0.7242 0.0000 0.6895
vn 0.6895 0.0000 0.7242
vn 0.6532 0.0000 0.7572
vn 0.6152 0.0000 0.7883
vn 0.5758 0.0000 0.8176
vn 0.5350 0.0000 0.8449
vn 0.4929 0.0000 0.8701
vn 0.4496 0.0000 0.8932
vn 0.4052 0.0000 0.9142
vn 0.3599 0.0000 0.9330
vn 0.3137 0.0000 0.9495
vn 0.2667 0.0000 0.9638
vn 0.2191 0.0000 0.9757
vn 0.1710 0.0000 0.9853
vn 0.1224 0.0000 0.9925
vn 0.0736 0.0000 0.9973
vn 0.0245 0.0000 0.9997
vn -0.0245 0.0000 0.9997
vn -0.0736 0.0000 0.9973
vn -0.1224 0.0000 0.9925
vn -0.1710 0.0000 0.9853
vn -0.2191 0.0000 0.9757
vn -0.2667 0.0000 0.9638
vn -0.3137 0.0000 0.9495
vn -0.3599 0.0000 0.9330
vn -0.4052 0.0000 0.9142
vn -0.4496 0.0000 0.8932
vn -0.4929 0.0000 0.8701
vn -0.5350 0.0000 0.8449
vn -0.5758 0.0000 0.8176
vn -0.6152 0.0000 0.7883
vn -0.6532 0.0000 0.7572
vn -0.6895 0.0000 0.7243
vn -0.7242 0.0000 0.6895
vn -0.7572 0.0000 0.6532
vn -0.7883 0.0000 0.6152
vn -0.8176 0.0000 0.5758
vn -0.8449 0.0000 0.5350
vn -0.8701 0.0000 0.4929
vn -0.8932 0.0000 0.4496
vn -0.9142 0.0000 0.4052
vn -0.9330 0.0000 0.3599
vn -0.9495 0.0000 0.3137
vn -0.9638 0.0000 0.2667
vn -0.9757 0.0000 0.2191
vn -0.9853 0.0000 0.1710
vn -0.9925 0.0000 0.1224
vn -0.9973 0.0000 0.0736
vn -0.9997 0.0000 0.0245
vn -0.9997 0.0000 -0.0245
vn -0.9973 0.0000 -0.0736
vn -0.9925 0.0000 -0.1224
vn -0.9853 0.0000 -0.1710
vn -0.9757 0.0000 -0.2191
vn -0.9638 0.0000 -0.2667
vn -0.9495 0.0000 -0.3137
vn -0.9330 0.0000 -0.3599
vn -0.9142 0.0000 -0.4052
vn -0.8932 0.0000 -0.4496
vn -0.8701 0.0000 -0.4929
vn -0.8449 0.0000 -0.5350
vn -0.8176 0.0000 -0.5758
vn -0.7883 0.0000 -0.6152
vn -0.7572 0.0000 -0.6532
vn -0.7242 0.0000 -0.6895
vn -0.6895 0.0000 -0.7242
vn -0.6532 0.0000 -0.7572
vn -0.6152 0.0000 -0.7883
vn -0.5758 0.0000 -0.8176
vn -0.5350 0.0000 -0.8449
vn -0.4929 0.0000 -0.8701
vn -0.4496 0.0000 -0.8932
vn -0.4052 0.0000 -0.9142
vn -0.3599 0.0000 -0.9330
vn -0.3137 0.0000 -0.9495
vn -0.2667 0.0000 -0.9638
vn -0.2191 0.0000 -0.9757
vn -0.1710 0.0000 -0.9853
vn -0.1224 0.0000 -0.9925
vn -0.0736 0.0000 -0.9973
vn -0.0245 0.0000 -0.9997
usemtl None
s off
f 1/1/1 2/2/1 4/3/1 3/4/1
f 3/4/2 4/3/2 6/5/2 5/6/2
f 5/6/3 6/5/3 8/7/3 7/8/3
f 7/8/4 8/7/4 10/9/4 9/10/4
f 9/10/5 10/9/5 12/11/5 11/12/5
f 11/12/6 12/11/6 14/13/6 13/14/6
f 13/14/7 14/13/7 16/15/7 15/16/7
f 15/16/8 16/15/8 18/17/8 17/18/8
f 17/18/9 18/17/9 20/19/9 19/20/9
f 19/20/10 20/19/10 22/21/10 21/22/10
f 21/22/11 22/21/11 24/23/11 23/24/11
f 23/24/12 24/23/12 26/25/12 25/26/12
f 25/26/13 26/25/13 28/27/13 27/28/13
f 27/28/14 28/27/14 30/29/14 29/30/14
f 29/30/15 30/29/15 32/31/15 31/32/15
f 31/32/16 32/31/16 34/33/16 33/34/16
f 33/34/17 34/33/17 36/35/17 35/36/17
f 35/36/18 36/35/18 38/37/18 37/38/18
f 37/38/19 38/37/19 40/39/19 39/40/19
f 39/40/20 40/39/20 42/41/20 41/42/20
f 41/42/21 42/41/21 44/43/21 43/44/21
f 43/44/22 44/43/22 46/45/22 45/46/22
f 45/46/23 46/45/23 48/47/23 47/48/23
f 47/48/24 48/47/24 50/49/24 49/50/24
f 49/50/25 50/49/25 52/51/25 51/52/25
f 51/52/26 52/51/26 54/53/26 53/54/26
f 53/54/27 54/53/27 56/55/27 55/56/27
f 55/56/28 56/55/28 58/57/28 57/58/28
f 57/58/29 58/57/29 60/59/29 59/60/29
f 59/60/30 60/59/30 62/61/30 61/62/30
f 61/62/31 62/61/31 64/63/31 63/64/31
f 63/64/32 64/63/32 66/65/32 65/66/32
f 65/66/33 66/65/33 68/67/33 67/68/33
f 67/68/34 68/67/34 70/69/34 69/70/34
f 69/70/35 70/69/35 72/71/35 71/72/35
f 71/72/36 72/71/36 74/73/36 73/74/36
f 73/74/37 74/73/37 76/75/37 75/76/37
f 75/76/38 76/75/38 78/77/38 77/78/38
f 77/78/39 78/77/39 80/79/39 79/80/39
f 79/80/40 80/79/40 82/81/40 81/82/40
f 81/82/41 82/81/41 84/83/41 83/84/41
f 83/84/42 84/83/42 86/85/42 85/86/42
f 85/86/43 86/85/43 88/87/43 87/88/43
f 87/88/44 88/87/44 90/89/44 89/90/44
f 89/90/45 90/89/45 92/91/45 91/92/45
f 91/92/46 92/91/46 94/93/46 93/94/46
f 93/94/47 94/93/47 96/95/47 95/96/47
f 95/96/48 96/95/48 98/97/48 97/98/48
f 97/98/49 98/97/49 100/99/49 99/100/49
f 99/100/50 100/99/50 102/101/50 101/102/50
f 101/102/51 102/101/51 104/103/51 103/104/51
f 103/104/52 104/103/52 106/105/52 105/106/52
f 105/106/53 106/105/53 108/107/53 107/108/53
f 107/108/54 108/107/54 110/109/54 109/110/54
f 109/110/55 110/109/55 112/111/55 111/112/55
f 111/112/56 112/111/56 114/113/56 113/114/56
f 113/114/57 114/113/57 116/115/57 115/116/57
f 115/116/58 116/115/58 118/117/58 117/118/58
f 117/118/59 118/117/59 120/119/59 119/120/59
f 119/120/60 120/119/60 122/121/60 121/122/60
f 121/122/61 122/121/61 124/123/61 123/124/61
f 123/124/62 124/123/62 126/125/62 125/126/62
f 125/126/63 126/125/63 128/127/63 127/128/63
f 127/128/64 128/127/64 130/129/64 129/130/64
f 129/130/65 130/129/65 132/131/65 131/132/65
f 131/132/66 132/131/66 134/133/66 133/134/66
f 133/134/67 134/133/67 136/135/67 135/136/67
f 135/136/68 136/135/68 138/137/68 137/138/68
f 137/138/69 138/137/69 140/139/69 139/140/69
f 139/140/70 140/139/70 142/141/70 141/142/70
f 141/142/71 142/141/71 144/143/71 143/144/71
f 143/144/72 144/143/72 146/145/72 145/146/72
f 145/146/73 146/145/73 148/147/73 147/148/73
f 147/148/74 148/147/74 150/149/74 149/150/74
f 149/150/75 150/149/75 152/151/75 151/152/75
f 151/152/76 152/151/76 154/153/76 153/154/76
f 153/154/77 154/153/77 156/155/77 155/156/77
f 155/156/78 156/155/78 158/157/78 157/158/78
f 157/158/79 158/157/79 160/159/79 159/160/79
f 159/160/80 160/159/80 162/161/80 161/162/80
f 161/162/81 162/161/81 164/163/81 163/164/81
f 163/164/82 164/163/82 166/165/82 165/166/82
f 165/166/83 166/165/83 168/167/83 167/168/83
f 167/168/84 168/167/84 170/169/84 169/170/84
f 169/170/85 170/169/85 172/171/85 171/172/85
f 171/172/86 172/171/86 174/173/86 173/174/86
f 173/174/87 174/173/87 176/175/87 175/176/87
f 175/176/88 176/175/88 178/177/88 177/178/88
f 177/178/89 178/177/89 180/179/89 179/180/89
f 179/180/90 180/179/90 182/181/90 181/182/90
f 181/182/91 182/181/91 184/183/91 183/184/91
f 183/184/92 184/183/92 186/185/92 185/186/92
f 185/186/93 186/185/93 188/187/93 187/188/93
f 187/188/94 188/187/94 190/189/94 189/190/94
f 189/190/95 190/189/95 192/191/95 191/192/95
f 191/192/96 192/191/96 194/193/96 193/194/96
f 193/194/97 194/193/97 196/195/97 195/196/97
f 195/196/98 196/195/98 198/197/98 197/198/98
f 197/198/99 198/197/99 200/199/99 199/200/99
f 199/200/100 200/199/100 202/201/100 201/202/100
f 201/202/101 202/201/101 204/203/101 203/204/101
f 203/204/102 204/203/102 206/205/102 205/206/102
f 205/206/103 206/205/103 208/207/103 207/208/103
f 207/208/104 208/207/104 210/209/104 209/210/104
f 209/210/105 210/209/105 212/211/105 211/212/105
f 211/212/106 212/211/106 214/213/106 213/214/106
f 213/214/107 214/213/107 216/215/107 215/216/107
f 215/216/108 216/215/108 218/217/108 217/218/108
f 217/218/109 218/217/109 220/219/109 219/220/109
f 219/220/110 220/219/110 222/221/110 221/222/110
f 221/222/111 222/221/111 224/223/111 223/224/111
f 223/224/112 224/223/112 226/225/112 225/226/112
f 225/226/113 226/225/113 228/227/113 227/228/113
f 227/228/114 228/227/114 230/229/114 229/230/114
f 229/230/115 230/229/115 232/231/115 231/232/115
f 231/232/116 232/231/116 234/233/116 233/234/116
f 233/234/117 234/233/117 236/235/117 235/236/117
f 235/236/118 236/235/118 238/237/118 237/238/118
f 237/238/119 238/237/119 240/239/119 239/240/119
f 239/240/120 240/239/120 242/241/120 241/242/120
f 241/242/121 242/241/121 244/243/121 243/244/121
f 243/244/122 244/243/122 246/245/122 245/246/122
f 245/246/123 246/245/123 248/247/123 247/248/123
f 247/248/124 248/247/124 250/249/124 249/250/124
f 249/250/125 250/249/125 252/251/125 251/252/125
f 251/252/126 252/251/126 254/253/126 253/254/126
f 253/254/127 254/253/127 256/255/127 255/256/127
f 255/256/128 256/255/128 2/257/128 1/258/128
