# Blender v2.81 (sub 16) OBJ File: ''
# www.blender.org
mtllib full_cube_h_260cm_r_160cm.mtl
o Cube_Cube.001
v -0.800000 0.000000 0.800000
v -0.800000 2.600000 0.800000
v -0.800000 0.000000 -0.800000
v -0.800000 2.600000 -0.800000
v 0.800000 0.000000 0.800000
v 0.800000 2.600000 0.800000
v 0.800000 0.000000 -0.800000
v 0.800000 2.600000 -0.800000
vt 0.999715 0.002941
vt 0.999715 0.997059
vt 0.749858 0.997059
vt 0.749858 0.002941
vt 0.500000 0.997059
vt 0.500000 0.002941
vt 0.250142 0.997059
vt 0.250142 0.002941
vt 0.000285 0.997059
vt 0.000285 0.002941
vn -1.0000 0.0000 0.0000
vn 0.0000 0.0000 -1.0000
vn 1.0000 0.0000 0.0000
vn 0.0000 0.0000 1.0000
usemtl Material.001
s off
f 1/1/1 2/2/1 4/3/1 3/4/1
f 3/4/2 4/3/2 8/5/2 7/6/2
f 7/6/3 8/5/3 6/7/3 5/8/3
f 5/8/4 6/7/4 2/9/4 1/10/4
