# Blender v2.81 (sub 16) OBJ File: ''
# www.blender.org
mtllib full_cylinder_h_228cm_r_150cm.mtl
o Cylinder_Cylinder.001
v 0.000000 0.000000 -1.500000
v 0.000000 2.280000 -1.500000
v 0.073602 2.280000 -1.498193
v 0.073602 0.000000 -1.498193
v 0.147026 2.280000 -1.492777
v 0.147026 0.000000 -1.492777
v 0.220096 2.280000 -1.483765
v 0.220096 0.000000 -1.483765
v 0.292636 2.280000 -1.471178
v 0.292636 0.000000 -1.471178
v 0.364470 2.280000 -1.455047
v 0.364470 0.000000 -1.455047
v 0.435427 2.280000 -1.435410
v 0.435427 0.000000 -1.435410
v 0.505335 2.280000 -1.412316
v 0.505335 0.000000 -1.412316
v 0.574025 2.280000 -1.385819
v 0.574025 0.000000 -1.385819
v 0.641333 2.280000 -1.355984
v 0.641333 0.000000 -1.355984
v 0.707095 2.280000 -1.322882
v 0.707095 0.000000 -1.322882
v 0.771154 2.280000 -1.286593
v 0.771154 0.000000 -1.286593
v 0.833355 2.280000 -1.247204
v 0.833355 0.000000 -1.247204
v 0.893549 2.280000 -1.204811
v 0.893549 0.000000 -1.204811
v 0.951590 2.280000 -1.159516
v 0.951590 0.000000 -1.159516
v 1.007339 2.280000 -1.111427
v 1.007339 0.000000 -1.111427
v 1.060660 2.280000 -1.060660
v 1.060660 0.000000 -1.060660
v 1.111427 2.280000 -1.007338
v 1.111427 0.000000 -1.007338
v 1.159516 2.280000 -0.951590
v 1.159516 0.000000 -0.951590
v 1.204811 2.280000 -0.893549
v 1.204811 0.000000 -0.893549
v 1.247205 2.280000 -0.833355
v 1.247205 0.000000 -0.833355
v 1.286593 2.280000 -0.771154
v 1.286593 0.000000 -0.771154
v 1.322882 2.280000 -0.707095
v 1.322882 0.000000 -0.707095
v 1.355984 2.280000 -0.641332
v 1.355984 0.000000 -0.641332
v 1.385819 2.280000 -0.574025
v 1.385819 0.000000 -0.574025
v 1.412316 2.280000 -0.505334
v 1.412316 0.000000 -0.505334
v 1.435411 2.280000 -0.435427
v 1.435411 0.000000 -0.435427
v 1.455047 2.280000 -0.364470
v 1.455047 0.000000 -0.364470
v 1.471178 2.280000 -0.292635
v 1.471178 0.000000 -0.292635
v 1.483765 2.280000 -0.220095
v 1.483765 0.000000 -0.220095
v 1.492777 2.280000 -0.147025
v 1.492777 0.000000 -0.147025
v 1.498193 2.280000 -0.073601
v 1.498193 0.000000 -0.073601
v 1.500000 2.280000 0.000001
v 1.500000 -0.000000 0.000001
v 1.498193 2.280000 0.073602
v 1.498193 -0.000000 0.073602
v 1.492777 2.280000 0.147026
v 1.492777 -0.000000 0.147026
v 1.483765 2.280000 0.220096
v 1.483765 -0.000000 0.220096
v 1.471178 2.280000 0.292636
v 1.471178 -0.000000 0.292636
v 1.455047 2.280000 0.364471
v 1.455047 -0.000000 0.364471
v 1.435410 2.280000 0.435428
v 1.435410 -0.000000 0.435428
v 1.412316 2.280000 0.505336
v 1.412316 -0.000000 0.505336
v 1.385819 2.280000 0.574026
v 1.385819 -0.000000 0.574026
v 1.355984 2.280000 0.641333
v 1.355984 -0.000000 0.641333
v 1.322882 2.280000 0.707096
v 1.322882 -0.000000 0.707096
v 1.286593 2.280000 0.771155
v 1.286593 -0.000000 0.771155
v 1.247204 2.280000 0.833356
v 1.247204 -0.000000 0.833356
v 1.204811 2.280000 0.893549
v 1.204811 -0.000000 0.893549
v 1.159516 2.280000 0.951590
v 1.159516 -0.000000 0.951590
v 1.111427 2.280000 1.007338
v 1.111427 -0.000000 1.007338
v 1.060660 2.280000 1.060660
v 1.060660 -0.000000 1.060660
v 1.007339 2.280000 1.111426
v 1.007339 -0.000000 1.111426
v 0.951590 2.280000 1.159515
v 0.951590 -0.000000 1.159515
v 0.893550 2.280000 1.204811
v 0.893550 -0.000000 1.204811
v 0.833356 2.280000 1.247204
v 0.833356 -0.000000 1.247204
v 0.771155 2.280000 1.286592
v 0.771155 -0.000000 1.286592
v 0.707096 2.280000 1.322881
v 0.707096 -0.000000 1.322881
v 0.641334 2.280000 1.355983
v 0.641334 -0.000000 1.355983
v 0.574027 2.280000 1.385819
v 0.574027 -0.000000 1.385819
v 0.505336 2.280000 1.412316
v 0.505336 -0.000000 1.412316
v 0.435429 2.280000 1.435410
v 0.435429 -0.000000 1.435410
v 0.364472 2.280000 1.455046
v 0.364472 -0.000000 1.455046
v 0.292638 2.280000 1.471178
v 0.292638 -0.000000 1.471178
v 0.220098 2.280000 1.483764
v 0.220098 -0.000000 1.483764
v 0.147028 2.280000 1.492777
v 0.147028 -0.000000 1.492777
v 0.073604 2.280000 1.498193
v 0.073604 -0.000000 1.498193
v 0.000003 2.280000 1.500000
v 0.000003 -0.000000 1.500000
v -0.073599 2.280000 1.498193
v -0.073599 -0.000000 1.498193
v -0.147023 2.280000 1.492777
v -0.147023 -0.000000 1.492777
v -0.220093 2.280000 1.483765
v -0.220093 -0.000000 1.483765
v -0.292632 2.280000 1.471179
v -0.292632 -0.000000 1.471179
v -0.364467 2.280000 1.455048
v -0.364467 -0.000000 1.455048
v -0.435424 2.280000 1.435411
v -0.435424 -0.000000 1.435411
v -0.505331 2.280000 1.412317
v -0.505331 -0.000000 1.412317
v -0.574022 2.280000 1.385821
v -0.574022 -0.000000 1.385821
v -0.641329 2.280000 1.355986
v -0.641329 -0.000000 1.355986
v -0.707091 2.280000 1.322884
v -0.707091 -0.000000 1.322884
v -0.771150 2.280000 1.286595
v -0.771150 -0.000000 1.286595
v -0.833352 2.280000 1.247207
v -0.833352 -0.000000 1.247207
v -0.893545 2.280000 1.204814
v -0.893545 -0.000000 1.204814
v -0.951586 2.280000 1.159519
v -0.951586 -0.000000 1.159519
v -1.007335 2.280000 1.111430
v -1.007335 -0.000000 1.111430
v -1.060657 2.280000 1.060664
v -1.060657 -0.000000 1.060664
v -1.111423 2.280000 1.007342
v -1.111423 -0.000000 1.007342
v -1.159513 2.280000 0.951594
v -1.159513 -0.000000 0.951594
v -1.204808 2.280000 0.893553
v -1.204808 -0.000000 0.893553
v -1.247202 2.280000 0.833359
v -1.247202 -0.000000 0.833359
v -1.286591 2.280000 0.771158
v -1.286591 -0.000000 0.771158
v -1.322880 2.280000 0.707099
v -1.322880 -0.000000 0.707099
v -1.355982 2.280000 0.641336
v -1.355982 -0.000000 0.641336
v -1.385818 2.280000 0.574029
v -1.385818 -0.000000 0.574029
v -1.412315 2.280000 0.505338
v -1.412315 -0.000000 0.505338
v -1.435410 2.280000 0.435430
v -1.435410 -0.000000 0.435430
v -1.455046 2.280000 0.364473
v -1.455046 -0.000000 0.364473
v -1.471177 2.280000 0.292638
v -1.471177 -0.000000 0.292638
v -1.483764 2.280000 0.220098
v -1.483764 -0.000000 0.220098
v -1.492777 2.280000 0.147028
v -1.492777 -0.000000 0.147028
v -1.498193 2.280000 0.073604
v -1.498193 -0.000000 0.073604
v -1.500000 2.280000 0.000002
v -1.500000 -0.000000 0.000002
v -1.498193 2.280000 -0.073600
v -1.498193 0.000000 -0.073600
v -1.492777 2.280000 -0.147024
v -1.492777 0.000000 -0.147024
v -1.483765 2.280000 -0.220094
v -1.483765 0.000000 -0.220094
v -1.471178 2.280000 -0.292634
v -1.471178 0.000000 -0.292634
v -1.455047 2.280000 -0.364469
v -1.455047 0.000000 -0.364469
v -1.435411 2.280000 -0.435426
v -1.435411 0.000000 -0.435426
v -1.412316 2.280000 -0.505334
v -1.412316 0.000000 -0.505334
v -1.385819 2.280000 -0.574025
v -1.385819 0.000000 -0.574025
v -1.355984 2.280000 -0.641332
v -1.355984 0.000000 -0.641332
v -1.322882 2.280000 -0.707095
v -1.322882 0.000000 -0.707095
v -1.286593 2.280000 -0.771154
v -1.286593 0.000000 -0.771154
v -1.247204 2.280000 -0.833356
v -1.247204 0.000000 -0.833356
v -1.204811 2.280000 -0.893549
v -1.204811 0.000000 -0.893549
v -1.159515 2.280000 -0.951591
v -1.159515 0.000000 -0.951591
v -1.111426 2.280000 -1.007339
v -1.111426 0.000000 -1.007339
v -1.060659 2.280000 -1.060661
v -1.060659 0.000000 -1.060661
v -1.007337 2.280000 -1.111428
v -1.007337 0.000000 -1.111428
v -0.951589 2.280000 -1.159517
v -0.951589 0.000000 -1.159517
v -0.893547 2.280000 -1.204812
v -0.893547 0.000000 -1.204812
v -0.833354 2.280000 -1.247205
v -0.833354 0.000000 -1.247205
v -0.771152 2.280000 -1.286594
v -0.771152 0.000000 -1.286594
v -0.707093 2.280000 -1.322883
v -0.707093 0.000000 -1.322883
v -0.641330 2.280000 -1.355985
v -0.641330 0.000000 -1.355985
v -0.574023 2.280000 -1.385820
v -0.574023 0.000000 -1.385820
v -0.505332 2.280000 -1.412317
v -0.505332 0.000000 -1.412317
v -0.435424 2.280000 -1.435411
v -0.435424 0.000000 -1.435411
v -0.364467 2.280000 -1.455048
v -0.364467 0.000000 -1.455048
v -0.292632 2.280000 -1.471179
v -0.292632 0.000000 -1.471179
v -0.220092 2.280000 -1.483765
v -0.220092 0.000000 -1.483765
v -0.147022 2.280000 -1.492778
v -0.147022 0.000000 -1.492778
v -0.073597 2.280000 -1.498193
v -0.073597 0.000000 -1.498193
vt 0.997917 -0.003704
vt 0.997917 0.996296
vt 0.990105 0.996296
vt 0.990105 -0.003704
vt 0.982292 0.996296
vt 0.982292 -0.003704
vt 0.974479 0.996296
vt 0.974479 -0.003704
vt 0.966667 0.996296
vt 0.966667 -0.003704
vt 0.958855 0.996296
vt 0.958855 -0.003704
vt 0.951042 0.996296
vt 0.951042 -0.003704
vt 0.943229 0.996296
vt 0.943229 -0.003704
vt 0.935417 0.996296
vt 0.935417 -0.003704
vt 0.927605 0.996296
vt 0.927605 -0.003704
vt 0.919792 0.996296
vt 0.919792 -0.003704
vt 0.911979 0.996296
vt 0.911979 -0.003704
vt 0.904167 0.996296
vt 0.904167 -0.003704
vt 0.896355 0.996296
vt 0.896355 -0.003704
vt 0.888542 0.996296
vt 0.888542 -0.003704
vt 0.880729 0.996296
vt 0.880729 -0.003704
vt 0.872917 0.996296
vt 0.872917 -0.003704
vt 0.865105 0.996296
vt 0.865105 -0.003704
vt 0.857292 0.996296
vt 0.857292 -0.003704
vt 0.849479 0.996296
vt 0.849479 -0.003704
vt 0.841667 0.996296
vt 0.841667 -0.003704
vt 0.833855 0.996296
vt 0.833855 -0.003704
vt 0.826042 0.996296
vt 0.826042 -0.003704
vt 0.818229 0.996296
vt 0.818229 -0.003704
vt 0.810417 0.996296
vt 0.810417 -0.003704
vt 0.802605 0.996296
vt 0.802605 -0.003704
vt 0.794792 0.996296
vt 0.794792 -0.003704
vt 0.786979 0.996296
vt 0.786979 -0.003704
vt 0.779167 0.996296
vt 0.779167 -0.003704
vt 0.771355 0.996296
vt 0.771355 -0.003704
vt 0.763542 0.996296
vt 0.763542 -0.003704
vt 0.755729 0.996296
vt 0.755729 -0.003704
vt 0.747917 0.996296
vt 0.747917 -0.003704
vt 0.740105 0.996296
vt 0.740105 -0.003704
vt 0.732292 0.996296
vt 0.732292 -0.003704
vt 0.724479 0.996296
vt 0.724479 -0.003704
vt 0.716667 0.996296
vt 0.716667 -0.003704
vt 0.708855 0.996296
vt 0.708855 -0.003704
vt 0.701042 0.996296
vt 0.701042 -0.003704
vt 0.693229 0.996296
vt 0.693229 -0.003704
vt 0.685417 0.996296
vt 0.685417 -0.003704
vt 0.677605 0.996296
vt 0.677605 -0.003704
vt 0.669792 0.996296
vt 0.669792 -0.003704
vt 0.661979 0.996296
vt 0.661979 -0.003704
vt 0.654167 0.996296
vt 0.654167 -0.003704
vt 0.646355 0.996296
vt 0.646355 -0.003704
vt 0.638542 0.996296
vt 0.638542 -0.003704
vt 0.630729 0.996296
vt 0.630729 -0.003704
vt 0.622917 0.996296
vt 0.622917 -0.003704
vt 0.615105 0.996296
vt 0.615105 -0.003704
vt 0.607292 0.996296
vt 0.607292 -0.003704
vt 0.599479 0.996296
vt 0.599479 -0.003704
vt 0.591667 0.996296
vt 0.591667 -0.003704
vt 0.583855 0.996296
vt 0.583855 -0.003704
vt 0.576042 0.996296
vt 0.576042 -0.003704
vt 0.568229 0.996296
vt 0.568229 -0.003704
vt 0.560417 0.996296
vt 0.560417 -0.003704
vt 0.552605 0.996296
vt 0.552605 -0.003704
vt 0.544792 0.996296
vt 0.544792 -0.003704
vt 0.536979 0.996296
vt 0.536979 -0.003704
vt 0.529167 0.996296
vt 0.529167 -0.003704
vt 0.521355 0.996296
vt 0.521355 -0.003704
vt 0.513542 0.996296
vt 0.513542 -0.003704
vt 0.505729 0.996296
vt 0.505729 -0.003704
vt 0.497917 0.996296
vt 0.497917 -0.003704
vt 0.490105 0.996296
vt 0.490105 -0.003704
vt 0.482292 0.996296
vt 0.482292 -0.003704
vt 0.474479 0.996296
vt 0.474479 -0.003704
vt 0.466667 0.996296
vt 0.466667 -0.003704
vt 0.458855 0.996296
vt 0.458855 -0.003704
vt 0.451042 0.996296
vt 0.451042 -0.003704
vt 0.443229 0.996296
vt 0.443229 -0.003704
vt 0.435417 0.996296
vt 0.435417 -0.003704
vt 0.427605 0.996296
vt 0.427605 -0.003704
vt 0.419792 0.996296
vt 0.419792 -0.003704
vt 0.411979 0.996296
vt 0.411979 -0.003704
vt 0.404167 0.996296
vt 0.404167 -0.003704
vt 0.396355 0.996296
vt 0.396355 -0.003704
vt 0.388542 0.996296
vt 0.388542 -0.003704
vt 0.380729 0.996296
vt 0.380729 -0.003704
vt 0.372917 0.996296
vt 0.372917 -0.003704
vt 0.365105 0.996296
vt 0.365105 -0.003704
vt 0.357292 0.996296
vt 0.357292 -0.003704
vt 0.349479 0.996296
vt 0.349479 -0.003704
vt 0.341667 0.996296
vt 0.341667 -0.003704
vt 0.333855 0.996296
vt 0.333855 -0.003704
vt 0.326042 0.996296
vt 0.326042 -0.003704
vt 0.318229 0.996296
vt 0.318229 -0.003704
vt 0.310417 0.996296
vt 0.310417 -0.003704
vt 0.302605 0.996296
vt 0.302605 -0.003704
vt 0.294792 0.996296
vt 0.294792 -0.003704
vt 0.286979 0.996296
vt 0.286979 -0.003704
vt 0.279167 0.996296
vt 0.279167 -0.003704
vt 0.271355 0.996296
vt 0.271355 -0.003704
vt 0.263542 0.996296
vt 0.263542 -0.003704
vt 0.255729 0.996296
vt 0.255729 -0.003704
vt 0.247917 0.996296
vt 0.247917 -0.003704
vt 0.240105 0.996296
vt 0.240105 -0.003704
vt 0.232292 0.996296
vt 0.232292 -0.003704
vt 0.224479 0.996296
vt 0.224479 -0.003704
vt 0.216667 0.996296
vt 0.216667 -0.003704
vt 0.208855 0.996296
vt 0.208855 -0.003704
vt 0.201042 0.996296
vt 0.201042 -0.003704
vt 0.193229 0.996296
vt 0.193229 -0.003704
vt 0.185417 0.996296
vt 0.185417 -0.003704
vt 0.177605 0.996296
vt 0.177605 -0.003704
vt 0.169792 0.996296
vt 0.169792 -0.003704
vt 0.161979 0.996296
vt 0.161979 -0.003704
vt 0.154167 0.996296
vt 0.154167 -0.003704
vt 0.146355 0.996296
vt 0.146355 -0.003704
vt 0.138542 0.996296
vt 0.138542 -0.003704
vt 0.130729 0.996296
vt 0.130729 -0.003704
vt 0.122917 0.996296
vt 0.122917 -0.003704
vt 0.115105 0.996296
vt 0.115105 -0.003704
vt 0.107292 0.996296
vt 0.107292 -0.003704
vt 0.099479 0.996296
vt 0.099479 -0.003704
vt 0.091667 0.996296
vt 0.091667 -0.003704
vt 0.083855 0.996296
vt 0.083855 -0.003704
vt 0.076042 0.996296
vt 0.076042 -0.003704
vt 0.068229 0.996296
vt 0.068229 -0.003704
vt 0.060417 0.996296
vt 0.060417 -0.003704
vt 0.052605 0.996296
vt 0.052605 -0.003704
vt 0.044792 0.996296
vt 0.044792 -0.003704
vt 0.036979 0.996296
vt 0.036979 -0.003704
vt 0.029167 0.996296
vt 0.029167 -0.003704
vt 0.021355 0.996296
vt 0.021355 -0.003704
vt 0.013542 0.996296
vt 0.013542 -0.003704
vt 0.005729 0.996296
vt 0.005729 -0.003704
vt -0.002083 0.996296
vt -0.002083 -0.003704
vn 0.0245 0.0000 -0.9997
vn 0.0736 0.0000 -0.9973
vn 0.1224 0.0000 -0.9925
vn 0.1710 0.0000 -0.9853
vn 0.2191 0.0000 -0.9757
vn 0.2667 0.0000 -0.9638
vn 0.3137 0.0000 -0.9495
vn 0.3599 0.0000 -0.9330
vn 0.4052 0.0000 -0.9142
vn 0.4496 0.0000 -0.8932
vn 0.4929 0.0000 -0.8701
vn 0.5350 0.0000 -0.8449
vn 0.5758 0.0000 -0.8176
vn 0.6152 0.0000 -0.7884
vn 0.6532 0.0000 -0.7572
vn 0.6895 0.0000 -0.7242
vn 0.7242 0.0000 -0.6895
vn 0.7572 0.0000 -0.6532
vn 0.7884 0.0000 -0.6152
vn 0.8176 0.0000 -0.5758
vn 0.8449 0.0000 -0.5350
vn 0.8701 0.0000 -0.4929
vn 0.8932 0.0000 -0.4496
vn 0.9142 0.0000 -0.4052
vn 0.9330 0.0000 -0.3599
vn 0.9495 0.0000 -0.3137
vn 0.9638 0.0000 -0.2667
vn 0.9757 0.0000 -0.2191
vn 0.9853 0.0000 -0.1710
vn 0.9925 0.0000 -0.1224
vn 0.9973 -0.0000 -0.0736
vn 0.9997 -0.0000 -0.0245
vn 0.9997 -0.0000 0.0245
vn 0.9973 -0.0000 0.0736
vn 0.9925 -0.0000 0.1224
vn 0.9853 -0.0000 0.1710
vn 0.9757 -0.0000 0.2191
vn 0.9638 -0.0000 0.2667
vn 0.9495 -0.0000 0.3137
vn 0.9330 -0.0000 0.3599
vn 0.9142 -0.0000 0.4052
vn 0.8932 -0.0000 0.4496
vn 0.8701 -0.0000 0.4929
vn 0.8448 -0.0000 0.5350
vn 0.8176 -0.0000 0.5758
vn 0.7884 -0.0000 0.6152
vn 0.7572 -0.0000 0.6532
vn 0.7242 -0.0000 0.6895
vn 0.6895 -0.0000 0.7242
vn 0.6532 -0.0000 0.7572
vn 0.6152 -0.0000 0.7883
vn 0.5758 -0.0000 0.8176
vn 0.5350 -0.0000 0.8449
vn 0.4929 -0.0000 0.8701
vn 0.4496 -0.0000 0.8932
vn 0.4052 -0.0000 0.9142
vn 0.3599 -0.0000 0.9330
vn 0.3137 -0.0000 0.9495
vn 0.2667 -0.0000 0.9638
vn 0.2191 -0.0000 0.9757
vn 0.1709 -0.0000 0.9853
vn 0.1224 -0.0000 0.9925
vn 0.0736 -0.0000 0.9973
vn 0.0245 -0.0000 0.9997
vn -0.0245 -0.0000 0.9997
vn -0.0736 -0.0000 0.9973
vn -0.1224 -0.0000 0.9925
vn -0.1710 -0.0000 0.9853
vn -0.2191 -0.0000 0.9757
vn -0.2667 -0.0000 0.9638
vn -0.3137 -0.0000 0.9495
vn -0.3599 -0.0000 0.9330
vn -0.4052 -0.0000 0.9142
vn -0.4496 -0.0000 0.8932
vn -0.4929 -0.0000 0.8701
vn -0.5350 -0.0000 0.8449
vn -0.5758 -0.0000 0.8176
vn -0.6152 -0.0000 0.7884
vn -0.6532 -0.0000 0.7572
vn -0.6895 -0.0000 0.7243
vn -0.7243 -0.0000 0.6895
vn -0.7572 -0.0000 0.6532
vn -0.7884 -0.0000 0.6152
vn -0.8176 -0.0000 0.5758
vn -0.8448 -0.0000 0.5350
vn -0.8701 -0.0000 0.4929
vn -0.8932 -0.0000 0.4496
vn -0.9142 -0.0000 0.4053
vn -0.9330 -0.0000 0.3599
vn -0.9495 -0.0000 0.3137
vn -0.9638 -0.0000 0.2667
vn -0.9757 -0.0000 0.2191
vn -0.9853 -0.0000 0.1710
vn -0.9925 -0.0000 0.1224
vn -0.9973 0.0000 0.0736
vn -0.9997 0.0000 0.0245
vn -0.9997 0.0000 -0.0245
vn -0.9973 0.0000 -0.0736
vn -0.9925 0.0000 -0.1224
vn -0.9853 0.0000 -0.1710
vn -0.9757 0.0000 -0.2191
vn -0.9638 0.0000 -0.2667
vn -0.9495 0.0000 -0.3137
vn -0.9330 0.0000 -0.3599
vn -0.9142 0.0000 -0.4052
vn -0.8932 0.0000 -0.4496
vn -0.8701 0.0000 -0.4929
vn -0.8449 0.0000 -0.5350
vn -0.8176 0.0000 -0.5758
vn -0.7883 0.0000 -0.6152
vn -0.7572 0.0000 -0.6532
vn -0.7242 0.0000 -0.6895
vn -0.6895 0.0000 -0.7242
vn -0.6532 0.0000 -0.7572
vn -0.6152 0.0000 -0.7884
vn -0.5758 0.0000 -0.8176
vn -0.5350 0.0000 -0.8449
vn -0.4929 0.0000 -0.8701
vn -0.4496 0.0000 -0.8932
vn -0.4052 0.0000 -0.9142
vn -0.3599 0.0000 -0.9330
vn -0.3137 0.0000 -0.9495
vn -0.2667 0.0000 -0.9638
vn -0.2191 0.0000 -0.9757
vn -0.1710 0.0000 -0.9853
vn -0.1224 0.0000 -0.9925
vn -0.0735 0.0000 -0.9973
vn -0.0245 0.0000 -0.9997
usemtl None.001
s 1
f 1/1/1 2/2/1 3/3/1 4/4/1
f 4/4/2 3/3/2 5/5/2 6/6/2
f 6/6/3 5/5/3 7/7/3 8/8/3
f 8/8/4 7/7/4 9/9/4 10/10/4
f 10/10/5 9/9/5 11/11/5 12/12/5
f 12/12/6 11/11/6 13/13/6 14/14/6
f 14/14/7 13/13/7 15/15/7 16/16/7
f 16/16/8 15/15/8 17/17/8 18/18/8
f 18/18/9 17/17/9 19/19/9 20/20/9
f 20/20/10 19/19/10 21/21/10 22/22/10
f 22/22/11 21/21/11 23/23/11 24/24/11
f 24/24/12 23/23/12 25/25/12 26/26/12
f 26/26/13 25/25/13 27/27/13 28/28/13
f 28/28/14 27/27/14 29/29/14 30/30/14
f 30/30/15 29/29/15 31/31/15 32/32/15
f 32/32/16 31/31/16 33/33/16 34/34/16
f 34/34/17 33/33/17 35/35/17 36/36/17
f 36/36/18 35/35/18 37/37/18 38/38/18
f 38/38/19 37/37/19 39/39/19 40/40/19
f 40/40/20 39/39/20 41/41/20 42/42/20
f 42/42/21 41/41/21 43/43/21 44/44/21
f 44/44/22 43/43/22 45/45/22 46/46/22
f 46/46/23 45/45/23 47/47/23 48/48/23
f 48/48/24 47/47/24 49/49/24 50/50/24
f 50/50/25 49/49/25 51/51/25 52/52/25
f 52/52/26 51/51/26 53/53/26 54/54/26
f 54/54/27 53/53/27 55/55/27 56/56/27
f 56/56/28 55/55/28 57/57/28 58/58/28
f 58/58/29 57/57/29 59/59/29 60/60/29
f 60/60/30 59/59/30 61/61/30 62/62/30
f 62/62/31 61/61/31 63/63/31 64/64/31
f 64/64/32 63/63/32 65/65/32 66/66/32
f 66/66/33 65/65/33 67/67/33 68/68/33
f 68/68/34 67/67/34 69/69/34 70/70/34
f 70/70/35 69/69/35 71/71/35 72/72/35
f 72/72/36 71/71/36 73/73/36 74/74/36
f 74/74/37 73/73/37 75/75/37 76/76/37
f 76/76/38 75/75/38 77/77/38 78/78/38
f 78/78/39 77/77/39 79/79/39 80/80/39
f 80/80/40 79/79/40 81/81/40 82/82/40
f 82/82/41 81/81/41 83/83/41 84/84/41
f 84/84/42 83/83/42 85/85/42 86/86/42
f 86/86/43 85/85/43 87/87/43 88/88/43
f 88/88/44 87/87/44 89/89/44 90/90/44
f 90/90/45 89/89/45 91/91/45 92/92/45
f 92/92/46 91/91/46 93/93/46 94/94/46
f 94/94/47 93/93/47 95/95/47 96/96/47
f 96/96/48 95/95/48 97/97/48 98/98/48
f 98/98/49 97/97/49 99/99/49 100/100/49
f 100/100/50 99/99/50 101/101/50 102/102/50
f 102/102/51 101/101/51 103/103/51 104/104/51
f 104/104/52 103/103/52 105/105/52 106/106/52
f 106/106/53 105/105/53 107/107/53 108/108/53
f 108/108/54 107/107/54 109/109/54 110/110/54
f 110/110/55 109/109/55 111/111/55 112/112/55
f 112/112/56 111/111/56 113/113/56 114/114/56
f 114/114/57 113/113/57 115/115/57 116/116/57
f 116/116/58 115/115/58 117/117/58 118/118/58
f 118/118/59 117/117/59 119/119/59 120/120/59
f 120/120/60 119/119/60 121/121/60 122/122/60
f 122/122/61 121/121/61 123/123/61 124/124/61
f 124/124/62 123/123/62 125/125/62 126/126/62
f 126/126/63 125/125/63 127/127/63 128/128/63
f 128/128/64 127/127/64 129/129/64 130/130/64
f 130/130/65 129/129/65 131/131/65 132/132/65
f 132/132/66 131/131/66 133/133/66 134/134/66
f 134/134/67 133/133/67 135/135/67 136/136/67
f 136/136/68 135/135/68 137/137/68 138/138/68
f 138/138/69 137/137/69 139/139/69 140/140/69
f 140/140/70 139/139/70 141/141/70 142/142/70
f 142/142/71 141/141/71 143/143/71 144/144/71
f 144/144/72 143/143/72 145/145/72 146/146/72
f 146/146/73 145/145/73 147/147/73 148/148/73
f 148/148/74 147/147/74 149/149/74 150/150/74
f 150/150/75 149/149/75 151/151/75 152/152/75
f 152/152/76 151/151/76 153/153/76 154/154/76
f 154/154/77 153/153/77 155/155/77 156/156/77
f 156/156/78 155/155/78 157/157/78 158/158/78
f 158/158/79 157/157/79 159/159/79 160/160/79
f 160/160/80 159/159/80 161/161/80 162/162/80
f 162/162/81 161/161/81 163/163/81 164/164/81
f 164/164/82 163/163/82 165/165/82 166/166/82
f 166/166/83 165/165/83 167/167/83 168/168/83
f 168/168/84 167/167/84 169/169/84 170/170/84
f 170/170/85 169/169/85 171/171/85 172/172/85
f 172/172/86 171/171/86 173/173/86 174/174/86
f 174/174/87 173/173/87 175/175/87 176/176/87
f 176/176/88 175/175/88 177/177/88 178/178/88
f 178/178/89 177/177/89 179/179/89 180/180/89
f 180/180/90 179/179/90 181/181/90 182/182/90
f 182/182/91 181/181/91 183/183/91 184/184/91
f 184/184/92 183/183/92 185/185/92 186/186/92
f 186/186/93 185/185/93 187/187/93 188/188/93
f 188/188/94 187/187/94 189/189/94 190/190/94
f 190/190/95 189/189/95 191/191/95 192/192/95
f 192/192/96 191/191/96 193/193/96 194/194/96
f 194/194/97 193/193/97 195/195/97 196/196/97
f 196/196/98 195/195/98 197/197/98 198/198/98
f 198/198/99 197/197/99 199/199/99 200/200/99
f 200/200/100 199/199/100 201/201/100 202/202/100
f 202/202/101 201/201/101 203/203/101 204/204/101
f 204/204/102 203/203/102 205/205/102 206/206/102
f 206/206/103 205/205/103 207/207/103 208/208/103
f 208/208/104 207/207/104 209/209/104 210/210/104
f 210/210/105 209/209/105 211/211/105 212/212/105
f 212/212/106 211/211/106 213/213/106 214/214/106
f 214/214/107 213/213/107 215/215/107 216/216/107
f 216/216/108 215/215/108 217/217/108 218/218/108
f 218/218/109 217/217/109 219/219/109 220/220/109
f 220/220/110 219/219/110 221/221/110 222/222/110
f 222/222/111 221/221/111 223/223/111 224/224/111
f 224/224/112 223/223/112 225/225/112 226/226/112
f 226/226/113 225/225/113 227/227/113 228/228/113
f 228/228/114 227/227/114 229/229/114 230/230/114
f 230/230/115 229/229/115 231/231/115 232/232/115
f 232/232/116 231/231/116 233/233/116 234/234/116
f 234/234/117 233/233/117 235/235/117 236/236/117
f 236/236/118 235/235/118 237/237/118 238/238/118
f 238/238/119 237/237/119 239/239/119 240/240/119
f 240/240/120 239/239/120 241/241/120 242/242/120
f 242/242/121 241/241/121 243/243/121 244/244/121
f 244/244/122 243/243/122 245/245/122 246/246/122
f 246/246/123 245/245/123 247/247/123 248/248/123
f 248/248/124 247/247/124 249/249/124 250/250/124
f 250/250/125 249/249/125 251/251/125 252/252/125
f 252/252/126 251/251/126 253/253/126 254/254/126
f 254/254/127 253/253/127 255/255/127 256/256/127
f 256/256/128 255/255/128 2/257/128 1/258/128
