# Blender v2.81 (sub 16) OBJ File: ''
# www.blender.org
mtllib ranged_cube_h_49.954cm_r_160_cm_calculated.mtl
o Cube_Cube.001
v -0.800000 -0.000000 0.800000
v -0.800000 0.499540 0.800000
v -0.800000 0.499540 -0.800000
v -0.800000 0.000000 -0.800000
v 0.800000 0.499540 -0.800000
v 0.800000 0.000000 -0.800000
v 0.800000 0.499540 0.800000
v 0.800000 -0.000000 0.800000
vt 0.998498 0.003902
vt 0.998498 0.996097
vt 0.749249 0.996097
vt 0.749249 0.003903
vt 0.500000 0.996097
vt 0.500000 0.003903
vt 0.250751 0.996097
vt 0.250751 0.003903
vt 0.001502 0.996097
vt 0.001502 0.003903
vn -1.0000 -0.0000 0.0000
vn 0.0000 0.0000 -1.0000
vn 1.0000 0.0000 0.0000
vn 0.0000 -0.0000 1.0000
usemtl None
s 1
f 1/1/1 2/2/1 3/3/1 4/4/1
f 4/4/2 3/3/2 5/5/2 6/6/2
f 6/6/3 5/5/3 7/7/3 8/8/3
f 8/8/4 7/7/4 2/9/4 1/10/4
