# Blender v2.81 (sub 16) OBJ File: ''
# www.blender.org
mtllib cone_origin_at_center_of_mesh.mtl
o Cone_Cone.002
v 0.000000 0.000000 -0.026000
v 0.001276 0.000000 -0.025969
v 0.002548 0.000000 -0.025875
v 0.003815 0.000000 -0.025719
v 0.005072 0.000000 -0.025500
v 0.006317 0.000000 -0.025221
v 0.007547 0.000000 -0.024880
v 0.008759 0.000000 -0.024480
v 0.009950 0.000000 -0.024021
v 0.011116 0.000000 -0.023504
v 0.012256 0.000000 -0.022930
v 0.013367 0.000000 -0.022301
v 0.014445 0.000000 -0.021618
v 0.015488 0.000000 -0.020883
v 0.016494 0.000000 -0.020098
v 0.017461 0.000000 -0.019265
v 0.018385 0.000000 -0.018385
v 0.019265 0.000000 -0.017461
v 0.020098 0.000000 -0.016494
v 0.020883 0.000000 -0.015488
v 0.021618 0.000000 -0.014445
v 0.022301 0.000000 -0.013367
v 0.022930 0.000000 -0.012256
v 0.023504 0.000000 -0.011116
v 0.024021 0.000000 -0.009950
v 0.024480 0.000000 -0.008759
v 0.024880 0.000000 -0.007547
v 0.025221 0.000000 -0.006317
v 0.025500 0.000000 -0.005072
v 0.025719 0.000000 -0.003815
v 0.025875 0.000000 -0.002548
v 0.025969 0.000000 -0.001276
v 0.026000 0.000000 0.000000
v 0.025969 0.000000 0.001276
v 0.025875 0.000000 0.002548
v 0.025719 0.000000 0.003815
v 0.025500 0.000000 0.005072
v 0.025221 0.000000 0.006317
v 0.024880 0.000000 0.007547
v 0.024480 0.000000 0.008759
v 0.024021 0.000000 0.009950
v 0.023504 0.000000 0.011116
v 0.022930 0.000000 0.012256
v 0.022301 0.000000 0.013367
v 0.021618 0.000000 0.014445
v 0.020883 0.000000 0.015488
v 0.020098 0.000000 0.016494
v 0.019265 0.000000 0.017461
v 0.018385 0.000000 0.018385
v 0.017461 0.000000 0.019265
v 0.016494 0.000000 0.020098
v 0.015488 0.000000 0.020883
v 0.014445 0.000000 0.021618
v 0.013367 0.000000 0.022301
v 0.012256 0.000000 0.022930
v 0.011116 0.000000 0.023504
v 0.009950 0.000000 0.024021
v 0.008759 0.000000 0.024480
v 0.007547 0.000000 0.024880
v 0.006318 0.000000 0.025221
v 0.005072 0.000000 0.025500
v 0.003815 0.000000 0.025719
v 0.002548 0.000000 0.025875
v 0.001276 0.000000 0.025969
v 0.000000 0.000000 0.026000
v -0.001276 0.000000 0.025969
v -0.002548 0.000000 0.025875
v -0.003815 0.000000 0.025719
v -0.005072 0.000000 0.025500
v -0.006317 0.000000 0.025221
v -0.007547 0.000000 0.024880
v -0.008759 0.000000 0.024480
v -0.009950 0.000000 0.024021
v -0.011116 0.000000 0.023504
v -0.012256 0.000000 0.022930
v -0.013367 0.000000 0.022301
v -0.014445 0.000000 0.021618
v -0.015488 0.000000 0.020883
v -0.016494 0.000000 0.020098
v -0.017460 0.000000 0.019265
v -0.018385 0.000000 0.018385
v -0.019265 0.000000 0.017461
v -0.020098 0.000000 0.016494
v -0.020883 0.000000 0.015488
v -0.021618 0.000000 0.014445
v -0.022301 0.000000 0.013367
v -0.022930 0.000000 0.012256
v -0.023504 0.000000 0.011116
v -0.024021 0.000000 0.009950
v 0.000000 0.050000 0.000000
v -0.024480 0.000000 0.008759
v -0.024880 0.000000 0.007547
v -0.025221 0.000000 0.006318
v -0.025500 0.000000 0.005072
v -0.025719 0.000000 0.003815
v -0.025875 0.000000 0.002548
v -0.025969 0.000000 0.001276
v -0.026000 0.000000 0.000000
v -0.025969 0.000000 -0.001276
v -0.025875 0.000000 -0.002548
v -0.025719 0.000000 -0.003815
v -0.025500 0.000000 -0.005072
v -0.025221 0.000000 -0.006317
v -0.024880 0.000000 -0.007547
v -0.024480 0.000000 -0.008759
v -0.024021 0.000000 -0.009950
v -0.023504 0.000000 -0.011116
v -0.022930 0.000000 -0.012256
v -0.022301 0.000000 -0.013367
v -0.021618 0.000000 -0.014445
v -0.020883 0.000000 -0.015488
v -0.020098 0.000000 -0.016494
v -0.019265 0.000000 -0.017461
v -0.018385 0.000000 -0.018385
v -0.017461 0.000000 -0.019265
v -0.016494 0.000000 -0.020098
v -0.015488 0.000000 -0.020883
v -0.014445 0.000000 -0.021618
v -0.013367 0.000000 -0.022301
v -0.012256 0.000000 -0.022930
v -0.011116 0.000000 -0.023504
v -0.009950 0.000000 -0.024021
v -0.008759 0.000000 -0.024480
v -0.007547 0.000000 -0.024880
v -0.006317 0.000000 -0.025221
v -0.005072 0.000000 -0.025500
v -0.003815 0.000000 -0.025719
v -0.002548 0.000000 -0.025875
v -0.001276 0.000000 -0.025969
vt 0.250000 0.490000
vt 0.250000 0.250000
vt 0.261776 0.489711
vt 0.273524 0.488844
vt 0.285215 0.487402
vt 0.296822 0.485388
vt 0.308315 0.482808
vt 0.319668 0.479666
vt 0.330854 0.475971
vt 0.341844 0.471731
vt 0.352613 0.466957
vt 0.363135 0.461661
vt 0.373385 0.455855
vt 0.383337 0.449553
vt 0.392968 0.442770
vt 0.402254 0.435522
vt 0.411174 0.427828
vt 0.419706 0.419706
vt 0.427828 0.411174
vt 0.435523 0.402254
vt 0.442770 0.392968
vt 0.449553 0.383337
vt 0.455855 0.373385
vt 0.461661 0.363135
vt 0.466957 0.352613
vt 0.471731 0.341844
vt 0.475971 0.330854
vt 0.479666 0.319668
vt 0.482808 0.308315
vt 0.485388 0.296822
vt 0.487402 0.285215
vt 0.488844 0.273524
vt 0.489711 0.261776
vt 0.490000 0.250000
vt 0.489711 0.238224
vt 0.488844 0.226476
vt 0.487402 0.214785
vt 0.485388 0.203178
vt 0.482807 0.191685
vt 0.479666 0.180332
vt 0.475971 0.169146
vt 0.471731 0.158156
vt 0.466957 0.147387
vt 0.461661 0.136865
vt 0.455855 0.126615
vt 0.449553 0.116663
vt 0.442770 0.107032
vt 0.435522 0.097746
vt 0.427828 0.088826
vt 0.419706 0.080294
vt 0.411174 0.072172
vt 0.402254 0.064478
vt 0.392968 0.057230
vt 0.383337 0.050447
vt 0.373385 0.044145
vt 0.363135 0.038339
vt 0.352613 0.033043
vt 0.341844 0.028269
vt 0.330854 0.024030
vt 0.319669 0.020334
vt 0.308316 0.017193
vt 0.296822 0.014612
vt 0.285216 0.012598
vt 0.273524 0.011156
vt 0.261777 0.010289
vt 0.250000 0.010000
vt 0.238224 0.010289
vt 0.226476 0.011156
vt 0.214785 0.012598
vt 0.203179 0.014611
vt 0.191685 0.017192
vt 0.180332 0.020334
vt 0.169147 0.024029
vt 0.158157 0.028269
vt 0.147387 0.033042
vt 0.136865 0.038339
vt 0.126616 0.044145
vt 0.116664 0.050447
vt 0.107033 0.057230
vt 0.097746 0.064477
vt 0.088826 0.072171
vt 0.080295 0.080294
vt 0.072172 0.088825
vt 0.064478 0.097745
vt 0.057231 0.107032
vt 0.050448 0.116663
vt 0.044145 0.126615
vt 0.038339 0.136864
vt 0.033043 0.147386
vt 0.028269 0.158155
vt 0.024030 0.169146
vt 0.020334 0.180331
vt 0.017193 0.191684
vt 0.014612 0.203178
vt 0.012598 0.214784
vt 0.011156 0.226475
vt 0.010289 0.238223
vt 0.010000 0.250000
vt 0.010289 0.261776
vt 0.011156 0.273524
vt 0.012598 0.285215
vt 0.014611 0.296821
vt 0.017192 0.308315
vt 0.020334 0.319668
vt 0.024029 0.330853
vt 0.028269 0.341844
vt 0.033043 0.352613
vt 0.038339 0.363135
vt 0.044145 0.373385
vt 0.050447 0.383337
vt 0.057230 0.392968
vt 0.064478 0.402254
vt 0.072172 0.411174
vt 0.080295 0.419706
vt 0.088826 0.427828
vt 0.097746 0.435523
vt 0.107032 0.442770
vt 0.116663 0.449553
vt 0.126616 0.455855
vt 0.136865 0.461661
vt 0.147387 0.466958
vt 0.158156 0.471731
vt 0.169147 0.475971
vt 0.180332 0.479666
vt 0.191685 0.482808
vt 0.203179 0.485389
vt 0.214785 0.487402
vt 0.226477 0.488844
vt 0.238224 0.489711
vt 0.750000 0.490000
vt 0.761776 0.489711
vt 0.773524 0.488844
vt 0.785215 0.487402
vt 0.796822 0.485388
vt 0.808315 0.482808
vt 0.819668 0.479666
vt 0.830854 0.475971
vt 0.841844 0.471731
vt 0.852613 0.466957
vt 0.863135 0.461661
vt 0.873385 0.455855
vt 0.883337 0.449553
vt 0.892968 0.442770
vt 0.902254 0.435522
vt 0.911174 0.427828
vt 0.919706 0.419706
vt 0.927828 0.411174
vt 0.935523 0.402254
vt 0.942770 0.392968
vt 0.949553 0.383337
vt 0.955855 0.373385
vt 0.961661 0.363135
vt 0.966957 0.352613
vt 0.971731 0.341844
vt 0.975971 0.330854
vt 0.979666 0.319668
vt 0.982808 0.308315
vt 0.985389 0.296822
vt 0.987402 0.285215
vt 0.988844 0.273524
vt 0.989711 0.261776
vt 0.990000 0.250000
vt 0.989711 0.238224
vt 0.988844 0.226476
vt 0.987402 0.214785
vt 0.985388 0.203178
vt 0.982807 0.191685
vt 0.979666 0.180332
vt 0.975971 0.169146
vt 0.971731 0.158156
vt 0.966957 0.147387
vt 0.961661 0.136865
vt 0.955855 0.126615
vt 0.949553 0.116663
vt 0.942770 0.107032
vt 0.935522 0.097746
vt 0.927828 0.088826
vt 0.919706 0.080294
vt 0.911174 0.072172
vt 0.902254 0.064478
vt 0.892968 0.057230
vt 0.883337 0.050447
vt 0.873385 0.044145
vt 0.863135 0.038339
vt 0.852613 0.033043
vt 0.841844 0.028269
vt 0.830854 0.024030
vt 0.819669 0.020334
vt 0.808316 0.017193
vt 0.796822 0.014612
vt 0.785216 0.012598
vt 0.773525 0.011156
vt 0.761777 0.010289
vt 0.750000 0.010000
vt 0.738224 0.010289
vt 0.726476 0.011156
vt 0.714785 0.012598
vt 0.703179 0.014611
vt 0.691685 0.017192
vt 0.680332 0.020334
vt 0.669147 0.024029
vt 0.658157 0.028269
vt 0.647387 0.033042
vt 0.636865 0.038339
vt 0.626616 0.044145
vt 0.616664 0.050447
vt 0.607033 0.057230
vt 0.597746 0.064477
vt 0.588826 0.072171
vt 0.580295 0.080294
vt 0.572172 0.088825
vt 0.564478 0.097745
vt 0.557231 0.107032
vt 0.550448 0.116663
vt 0.544145 0.126615
vt 0.538339 0.136864
vt 0.533043 0.147386
vt 0.528269 0.158155
vt 0.524030 0.169146
vt 0.520334 0.180331
vt 0.517193 0.191684
vt 0.514612 0.203178
vt 0.512598 0.214784
vt 0.511156 0.226475
vt 0.510289 0.238223
vt 0.510000 0.250000
vt 0.510289 0.261776
vt 0.511156 0.273524
vt 0.512598 0.285215
vt 0.514611 0.296821
vt 0.517192 0.308315
vt 0.520334 0.319668
vt 0.524029 0.330853
vt 0.528269 0.341844
vt 0.533043 0.352613
vt 0.538339 0.363135
vt 0.544145 0.373385
vt 0.550447 0.383337
vt 0.557230 0.392968
vt 0.564478 0.402254
vt 0.572172 0.411174
vt 0.580294 0.419706
vt 0.588826 0.427828
vt 0.597746 0.435523
vt 0.607032 0.442770
vt 0.616663 0.449553
vt 0.626616 0.455855
vt 0.636865 0.461661
vt 0.647387 0.466958
vt 0.658156 0.471731
vt 0.669147 0.475971
vt 0.680332 0.479666
vt 0.691685 0.482808
vt 0.703179 0.485389
vt 0.714785 0.487402
vt 0.726477 0.488844
vt 0.738224 0.489711
vn 0.0218 0.4612 -0.8870
vn 0.0653 0.4612 -0.8849
vn 0.1086 0.4612 -0.8806
vn 0.1517 0.4612 -0.8742
vn 0.1944 0.4612 -0.8657
vn 0.2366 0.4612 -0.8551
vn 0.2783 0.4612 -0.8425
vn 0.3193 0.4612 -0.8278
vn 0.3596 0.4612 -0.8112
vn 0.3989 0.4612 -0.7925
vn 0.4373 0.4612 -0.7720
vn 0.4747 0.4612 -0.7496
vn 0.5109 0.4612 -0.7254
vn 0.5459 0.4612 -0.6995
vn 0.5795 0.4612 -0.6719
vn 0.6118 0.4612 -0.6426
vn 0.6426 0.4612 -0.6118
vn 0.6719 0.4612 -0.5795
vn 0.6995 0.4612 -0.5459
vn 0.7254 0.4612 -0.5109
vn 0.7496 0.4612 -0.4747
vn 0.7720 0.4612 -0.4373
vn 0.7925 0.4612 -0.3989
vn 0.8112 0.4612 -0.3596
vn 0.8278 0.4612 -0.3193
vn 0.8425 0.4612 -0.2783
vn 0.8551 0.4612 -0.2366
vn 0.8657 0.4612 -0.1944
vn 0.8742 0.4612 -0.1517
vn 0.8806 0.4612 -0.1086
vn 0.8849 0.4612 -0.0653
vn 0.8870 0.4612 -0.0218
vn 0.8870 0.4612 0.0218
vn 0.8849 0.4612 0.0653
vn 0.8806 0.4612 0.1086
vn 0.8742 0.4612 0.1517
vn 0.8657 0.4612 0.1944
vn 0.8551 0.4612 0.2366
vn 0.8425 0.4612 0.2783
vn 0.8278 0.4612 0.3193
vn 0.8112 0.4612 0.3596
vn 0.7925 0.4612 0.3989
vn 0.7720 0.4612 0.4373
vn 0.7496 0.4612 0.4747
vn 0.7254 0.4612 0.5109
vn 0.6995 0.4612 0.5459
vn 0.6719 0.4612 0.5795
vn 0.6426 0.4612 0.6118
vn 0.6118 0.4612 0.6426
vn 0.5795 0.4612 0.6719
vn 0.5459 0.4612 0.6995
vn 0.5109 0.4612 0.7254
vn 0.4747 0.4612 0.7496
vn 0.4373 0.4612 0.7720
vn 0.3989 0.4612 0.7925
vn 0.3596 0.4612 0.8112
vn 0.3193 0.4612 0.8278
vn 0.2783 0.4612 0.8425
vn 0.2366 0.4612 0.8551
vn 0.1944 0.4612 0.8657
vn 0.1517 0.4612 0.8742
vn 0.1086 0.4612 0.8806
vn 0.0653 0.4612 0.8849
vn 0.0218 0.4612 0.8870
vn -0.0218 0.4612 0.8870
vn -0.0653 0.4612 0.8849
vn -0.1086 0.4612 0.8806
vn -0.1517 0.4612 0.8742
vn -0.1944 0.4612 0.8657
vn -0.2366 0.4612 0.8551
vn -0.2783 0.4612 0.8425
vn -0.3193 0.4612 0.8278
vn -0.3596 0.4612 0.8112
vn -0.3989 0.4612 0.7925
vn -0.4373 0.4612 0.7720
vn -0.4747 0.4612 0.7496
vn -0.5109 0.4612 0.7254
vn -0.5459 0.4612 0.6995
vn -0.5795 0.4612 0.6719
vn -0.6118 0.4612 0.6426
vn -0.6426 0.4612 0.6118
vn -0.6718 0.4612 0.5795
vn -0.6995 0.4612 0.5459
vn -0.7254 0.4612 0.5109
vn -0.7496 0.4612 0.4747
vn -0.7720 0.4612 0.4373
vn -0.7925 0.4612 0.3989
vn -0.8112 0.4612 0.3596
vn -0.8278 0.4612 0.3193
vn -0.8425 0.4612 0.2783
vn -0.8551 0.4612 0.2366
vn -0.8657 0.4612 0.1944
vn -0.8742 0.4612 0.1517
vn -0.8806 0.4612 0.1086
vn -0.8849 0.4612 0.0653
vn -0.8870 0.4612 0.0218
vn -0.8870 0.4612 -0.0218
vn -0.8849 0.4612 -0.0653
vn -0.8806 0.4612 -0.1086
vn -0.8742 0.4612 -0.1517
vn -0.8657 0.4612 -0.1944
vn -0.8551 0.4612 -0.2366
vn -0.8425 0.4612 -0.2783
vn -0.8278 0.4612 -0.3193
vn -0.8112 0.4612 -0.3596
vn -0.7925 0.4612 -0.3989
vn -0.7720 0.4612 -0.4373
vn -0.7496 0.4612 -0.4747
vn -0.7254 0.4612 -0.5109
vn -0.6995 0.4612 -0.5459
vn -0.6719 0.4612 -0.5795
vn -0.6426 0.4612 -0.6118
vn -0.6118 0.4612 -0.6426
vn -0.5795 0.4612 -0.6719
vn -0.5459 0.4612 -0.6995
vn -0.5109 0.4612 -0.7254
vn -0.4747 0.4612 -0.7496
vn -0.4373 0.4612 -0.7720
vn -0.3989 0.4612 -0.7925
vn -0.3596 0.4612 -0.8112
vn -0.3193 0.4612 -0.8278
vn -0.2783 0.4612 -0.8425
vn -0.2366 0.4612 -0.8551
vn -0.1944 0.4612 -0.8657
vn -0.1517 0.4612 -0.8742
vn -0.1086 0.4612 -0.8806
vn -0.0653 0.4612 -0.8849
vn -0.0218 0.4612 -0.8870
vn 0.0000 -1.0000 0.0000
usemtl None
s off
f 1/1/1 90/2/1 2/3/1
f 2/3/2 90/2/2 3/4/2
f 3/4/3 90/2/3 4/5/3
f 4/5/4 90/2/4 5/6/4
f 5/6/5 90/2/5 6/7/5
f 6/7/6 90/2/6 7/8/6
f 7/8/7 90/2/7 8/9/7
f 8/9/8 90/2/8 9/10/8
f 9/10/9 90/2/9 10/11/9
f 10/11/10 90/2/10 11/12/10
f 11/12/11 90/2/11 12/13/11
f 12/13/12 90/2/12 13/14/12
f 13/14/13 90/2/13 14/15/13
f 14/15/14 90/2/14 15/16/14
f 15/16/15 90/2/15 16/17/15
f 16/17/16 90/2/16 17/18/16
f 17/18/17 90/2/17 18/19/17
f 18/19/18 90/2/18 19/20/18
f 19/20/19 90/2/19 20/21/19
f 20/21/20 90/2/20 21/22/20
f 21/22/21 90/2/21 22/23/21
f 22/23/22 90/2/22 23/24/22
f 23/24/23 90/2/23 24/25/23
f 24/25/24 90/2/24 25/26/24
f 25/26/25 90/2/25 26/27/25
f 26/27/26 90/2/26 27/28/26
f 27/28/27 90/2/27 28/29/27
f 28/29/28 90/2/28 29/30/28
f 29/30/29 90/2/29 30/31/29
f 30/31/30 90/2/30 31/32/30
f 31/32/31 90/2/31 32/33/31
f 32/33/32 90/2/32 33/34/32
f 33/34/33 90/2/33 34/35/33
f 34/35/34 90/2/34 35/36/34
f 35/36/35 90/2/35 36/37/35
f 36/37/36 90/2/36 37/38/36
f 37/38/37 90/2/37 38/39/37
f 38/39/38 90/2/38 39/40/38
f 39/40/39 90/2/39 40/41/39
f 40/41/40 90/2/40 41/42/40
f 41/42/41 90/2/41 42/43/41
f 42/43/42 90/2/42 43/44/42
f 43/44/43 90/2/43 44/45/43
f 44/45/44 90/2/44 45/46/44
f 45/46/45 90/2/45 46/47/45
f 46/47/46 90/2/46 47/48/46
f 47/48/47 90/2/47 48/49/47
f 48/49/48 90/2/48 49/50/48
f 49/50/49 90/2/49 50/51/49
f 50/51/50 90/2/50 51/52/50
f 51/52/51 90/2/51 52/53/51
f 52/53/52 90/2/52 53/54/52
f 53/54/53 90/2/53 54/55/53
f 54/55/54 90/2/54 55/56/54
f 55/56/55 90/2/55 56/57/55
f 56/57/56 90/2/56 57/58/56
f 57/58/57 90/2/57 58/59/57
f 58/59/58 90/2/58 59/60/58
f 59/60/59 90/2/59 60/61/59
f 60/61/60 90/2/60 61/62/60
f 61/62/61 90/2/61 62/63/61
f 62/63/62 90/2/62 63/64/62
f 63/64/63 90/2/63 64/65/63
f 64/65/64 90/2/64 65/66/64
f 65/66/65 90/2/65 66/67/65
f 66/67/66 90/2/66 67/68/66
f 67/68/67 90/2/67 68/69/67
f 68/69/68 90/2/68 69/70/68
f 69/70/69 90/2/69 70/71/69
f 70/71/70 90/2/70 71/72/70
f 71/72/71 90/2/71 72/73/71
f 72/73/72 90/2/72 73/74/72
f 73/74/73 90/2/73 74/75/73
f 74/75/74 90/2/74 75/76/74
f 75/76/75 90/2/75 76/77/75
f 76/77/76 90/2/76 77/78/76
f 77/78/77 90/2/77 78/79/77
f 78/79/78 90/2/78 79/80/78
f 79/80/79 90/2/79 80/81/79
f 80/81/80 90/2/80 81/82/80
f 81/82/81 90/2/81 82/83/81
f 82/83/82 90/2/82 83/84/82
f 83/84/83 90/2/83 84/85/83
f 84/85/84 90/2/84 85/86/84
f 85/86/85 90/2/85 86/87/85
f 86/87/86 90/2/86 87/88/86
f 87/88/87 90/2/87 88/89/87
f 88/89/88 90/2/88 89/90/88
f 89/90/89 90/2/89 91/91/89
f 91/91/90 90/2/90 92/92/90
f 92/92/91 90/2/91 93/93/91
f 93/93/92 90/2/92 94/94/92
f 94/94/93 90/2/93 95/95/93
f 95/95/94 90/2/94 96/96/94
f 96/96/95 90/2/95 97/97/95
f 97/97/96 90/2/96 98/98/96
f 98/98/97 90/2/97 99/99/97
f 99/99/98 90/2/98 100/100/98
f 100/100/99 90/2/99 101/101/99
f 101/101/100 90/2/100 102/102/100
f 102/102/101 90/2/101 103/103/101
f 103/103/102 90/2/102 104/104/102
f 104/104/103 90/2/103 105/105/103
f 105/105/104 90/2/104 106/106/104
f 106/106/105 90/2/105 107/107/105
f 107/107/106 90/2/106 108/108/106
f 108/108/107 90/2/107 109/109/107
f 109/109/108 90/2/108 110/110/108
f 110/110/109 90/2/109 111/111/109
f 111/111/110 90/2/110 112/112/110
f 112/112/111 90/2/111 113/113/111
f 113/113/112 90/2/112 114/114/112
f 114/114/113 90/2/113 115/115/113
f 115/115/114 90/2/114 116/116/114
f 116/116/115 90/2/115 117/117/115
f 117/117/116 90/2/116 118/118/116
f 118/118/117 90/2/117 119/119/117
f 119/119/118 90/2/118 120/120/118
f 120/120/119 90/2/119 121/121/119
f 121/121/120 90/2/120 122/122/120
f 122/122/121 90/2/121 123/123/121
f 123/123/122 90/2/122 124/124/122
f 124/124/123 90/2/123 125/125/123
f 125/125/124 90/2/124 126/126/124
f 126/126/125 90/2/125 127/127/125
f 127/127/126 90/2/126 128/128/126
f 128/128/127 90/2/127 129/129/127
f 129/129/128 90/2/128 1/1/128
f 1/130/129 2/131/129 3/132/129 4/133/129 5/134/129 6/135/129 7/136/129 8/137/129 9/138/129 10/139/129 11/140/129 12/141/129 13/142/129 14/143/129 15/144/129 16/145/129 17/146/129 18/147/129 19/148/129 20/149/129 21/150/129 22/151/129 23/152/129 24/153/129 25/154/129 26/155/129 27/156/129 28/157/129 29/158/129 30/159/129 31/160/129 32/161/129 33/162/129 34/163/129 35/164/129 36/165/129 37/166/129 38/167/129 39/168/129 40/169/129 41/170/129 42/171/129 43/172/129 44/173/129 45/174/129 46/175/129 47/176/129 48/177/129 49/178/129 50/179/129 51/180/129 52/181/129 53/182/129 54/183/129 55/184/129 56/185/129 57/186/129 58/187/129 59/188/129 60/189/129 61/190/129 62/191/129 63/192/129 64/193/129 65/194/129 66/195/129 67/196/129 68/197/129 69/198/129 70/199/129 71/200/129 72/201/129 73/202/129 74/203/129 75/204/129 76/205/129 77/206/129 78/207/129 79/208/129 80/209/129 81/210/129 82/211/129 83/212/129 84/213/129 85/214/129 86/215/129 87/216/129 88/217/129 89/218/129 91/219/129 92/220/129 93/221/129 94/222/129 95/223/129 96/224/129 97/225/129 98/226/129 99/227/129 100/228/129 101/229/129 102/230/129 103/231/129 104/232/129 105/233/129 106/234/129 107/235/129 108/236/129 109/237/129 110/238/129 111/239/129 112/240/129 113/241/129 114/242/129 115/243/129 116/244/129 117/245/129 118/246/129 119/247/129 120/248/129 121/249/129 122/250/129 123/251/129 124/252/129 125/253/129 126/254/129 127/255/129 128/256/129 129/257/129
